%TF.GenerationSoftware,KiCad,Pcbnew,8.0.8-8.0.8-0~ubuntu24.04.1*%
%TF.CreationDate,2025-02-07T10:36:07-08:00*%
%TF.ProjectId,flash_board,666c6173-685f-4626-9f61-72642e6b6963,rev?*%
%TF.SameCoordinates,Original*%
%TF.FileFunction,Legend,Top*%
%TF.FilePolarity,Positive*%
%FSLAX46Y46*%
G04 Gerber Fmt 4.6, Leading zero omitted, Abs format (unit mm)*
G04 Created by KiCad (PCBNEW 8.0.8-8.0.8-0~ubuntu24.04.1) date 2025-02-07 10:36:07*
%MOMM*%
%LPD*%
G01*
G04 APERTURE LIST*
%ADD10C,0.100000*%
%ADD11C,0.200000*%
%ADD12C,0.120000*%
G04 APERTURE END LIST*
D10*
X151553665Y-108176115D02*
X151553665Y-107842782D01*
X152077475Y-107699925D02*
X152077475Y-108176115D01*
X152077475Y-108176115D02*
X151077475Y-108176115D01*
X151077475Y-108176115D02*
X151077475Y-107699925D01*
X151410808Y-107271353D02*
X152077475Y-107271353D01*
X151506046Y-107271353D02*
X151458427Y-107223734D01*
X151458427Y-107223734D02*
X151410808Y-107128496D01*
X151410808Y-107128496D02*
X151410808Y-106985639D01*
X151410808Y-106985639D02*
X151458427Y-106890401D01*
X151458427Y-106890401D02*
X151553665Y-106842782D01*
X151553665Y-106842782D02*
X152077475Y-106842782D01*
X151410808Y-106509448D02*
X151410808Y-106128496D01*
X151077475Y-106366591D02*
X151934617Y-106366591D01*
X151934617Y-106366591D02*
X152029856Y-106318972D01*
X152029856Y-106318972D02*
X152077475Y-106223734D01*
X152077475Y-106223734D02*
X152077475Y-106128496D01*
X152029856Y-105414210D02*
X152077475Y-105509448D01*
X152077475Y-105509448D02*
X152077475Y-105699924D01*
X152077475Y-105699924D02*
X152029856Y-105795162D01*
X152029856Y-105795162D02*
X151934617Y-105842781D01*
X151934617Y-105842781D02*
X151553665Y-105842781D01*
X151553665Y-105842781D02*
X151458427Y-105795162D01*
X151458427Y-105795162D02*
X151410808Y-105699924D01*
X151410808Y-105699924D02*
X151410808Y-105509448D01*
X151410808Y-105509448D02*
X151458427Y-105414210D01*
X151458427Y-105414210D02*
X151553665Y-105366591D01*
X151553665Y-105366591D02*
X151648903Y-105366591D01*
X151648903Y-105366591D02*
X151744141Y-105842781D01*
X152077475Y-104938019D02*
X151410808Y-104938019D01*
X151601284Y-104938019D02*
X151506046Y-104890400D01*
X151506046Y-104890400D02*
X151458427Y-104842781D01*
X151458427Y-104842781D02*
X151410808Y-104747543D01*
X151410808Y-104747543D02*
X151410808Y-104652305D01*
X151410808Y-104318971D02*
X152410808Y-104318971D01*
X151458427Y-104318971D02*
X151410808Y-104223733D01*
X151410808Y-104223733D02*
X151410808Y-104033257D01*
X151410808Y-104033257D02*
X151458427Y-103938019D01*
X151458427Y-103938019D02*
X151506046Y-103890400D01*
X151506046Y-103890400D02*
X151601284Y-103842781D01*
X151601284Y-103842781D02*
X151886998Y-103842781D01*
X151886998Y-103842781D02*
X151982236Y-103890400D01*
X151982236Y-103890400D02*
X152029856Y-103938019D01*
X152029856Y-103938019D02*
X152077475Y-104033257D01*
X152077475Y-104033257D02*
X152077475Y-104223733D01*
X152077475Y-104223733D02*
X152029856Y-104318971D01*
X152077475Y-103414209D02*
X151410808Y-103414209D01*
X151601284Y-103414209D02*
X151506046Y-103366590D01*
X151506046Y-103366590D02*
X151458427Y-103318971D01*
X151458427Y-103318971D02*
X151410808Y-103223733D01*
X151410808Y-103223733D02*
X151410808Y-103128495D01*
X152077475Y-102795161D02*
X151410808Y-102795161D01*
X151077475Y-102795161D02*
X151125094Y-102842780D01*
X151125094Y-102842780D02*
X151172713Y-102795161D01*
X151172713Y-102795161D02*
X151125094Y-102747542D01*
X151125094Y-102747542D02*
X151077475Y-102795161D01*
X151077475Y-102795161D02*
X151172713Y-102795161D01*
X152029856Y-102366590D02*
X152077475Y-102271352D01*
X152077475Y-102271352D02*
X152077475Y-102080876D01*
X152077475Y-102080876D02*
X152029856Y-101985638D01*
X152029856Y-101985638D02*
X151934617Y-101938019D01*
X151934617Y-101938019D02*
X151886998Y-101938019D01*
X151886998Y-101938019D02*
X151791760Y-101985638D01*
X151791760Y-101985638D02*
X151744141Y-102080876D01*
X151744141Y-102080876D02*
X151744141Y-102223733D01*
X151744141Y-102223733D02*
X151696522Y-102318971D01*
X151696522Y-102318971D02*
X151601284Y-102366590D01*
X151601284Y-102366590D02*
X151553665Y-102366590D01*
X151553665Y-102366590D02*
X151458427Y-102318971D01*
X151458427Y-102318971D02*
X151410808Y-102223733D01*
X151410808Y-102223733D02*
X151410808Y-102080876D01*
X151410808Y-102080876D02*
X151458427Y-101985638D01*
X152029856Y-101128495D02*
X152077475Y-101223733D01*
X152077475Y-101223733D02*
X152077475Y-101414209D01*
X152077475Y-101414209D02*
X152029856Y-101509447D01*
X152029856Y-101509447D02*
X151934617Y-101557066D01*
X151934617Y-101557066D02*
X151553665Y-101557066D01*
X151553665Y-101557066D02*
X151458427Y-101509447D01*
X151458427Y-101509447D02*
X151410808Y-101414209D01*
X151410808Y-101414209D02*
X151410808Y-101223733D01*
X151410808Y-101223733D02*
X151458427Y-101128495D01*
X151458427Y-101128495D02*
X151553665Y-101080876D01*
X151553665Y-101080876D02*
X151648903Y-101080876D01*
X151648903Y-101080876D02*
X151744141Y-101557066D01*
X153687419Y-107604687D02*
X153211228Y-107938020D01*
X153687419Y-108176115D02*
X152687419Y-108176115D01*
X152687419Y-108176115D02*
X152687419Y-107795163D01*
X152687419Y-107795163D02*
X152735038Y-107699925D01*
X152735038Y-107699925D02*
X152782657Y-107652306D01*
X152782657Y-107652306D02*
X152877895Y-107604687D01*
X152877895Y-107604687D02*
X153020752Y-107604687D01*
X153020752Y-107604687D02*
X153115990Y-107652306D01*
X153115990Y-107652306D02*
X153163609Y-107699925D01*
X153163609Y-107699925D02*
X153211228Y-107795163D01*
X153211228Y-107795163D02*
X153211228Y-108176115D01*
X152687419Y-106985639D02*
X152687419Y-106795163D01*
X152687419Y-106795163D02*
X152735038Y-106699925D01*
X152735038Y-106699925D02*
X152830276Y-106604687D01*
X152830276Y-106604687D02*
X153020752Y-106557068D01*
X153020752Y-106557068D02*
X153354085Y-106557068D01*
X153354085Y-106557068D02*
X153544561Y-106604687D01*
X153544561Y-106604687D02*
X153639800Y-106699925D01*
X153639800Y-106699925D02*
X153687419Y-106795163D01*
X153687419Y-106795163D02*
X153687419Y-106985639D01*
X153687419Y-106985639D02*
X153639800Y-107080877D01*
X153639800Y-107080877D02*
X153544561Y-107176115D01*
X153544561Y-107176115D02*
X153354085Y-107223734D01*
X153354085Y-107223734D02*
X153020752Y-107223734D01*
X153020752Y-107223734D02*
X152830276Y-107176115D01*
X152830276Y-107176115D02*
X152735038Y-107080877D01*
X152735038Y-107080877D02*
X152687419Y-106985639D01*
X153687419Y-106128496D02*
X152687419Y-106128496D01*
X152687419Y-106128496D02*
X153401704Y-105795163D01*
X153401704Y-105795163D02*
X152687419Y-105461830D01*
X152687419Y-105461830D02*
X153687419Y-105461830D01*
X153639800Y-103795163D02*
X153687419Y-103890401D01*
X153687419Y-103890401D02*
X153687419Y-104080877D01*
X153687419Y-104080877D02*
X153639800Y-104176115D01*
X153639800Y-104176115D02*
X153592180Y-104223734D01*
X153592180Y-104223734D02*
X153496942Y-104271353D01*
X153496942Y-104271353D02*
X153211228Y-104271353D01*
X153211228Y-104271353D02*
X153115990Y-104223734D01*
X153115990Y-104223734D02*
X153068371Y-104176115D01*
X153068371Y-104176115D02*
X153020752Y-104080877D01*
X153020752Y-104080877D02*
X153020752Y-103890401D01*
X153020752Y-103890401D02*
X153068371Y-103795163D01*
X153687419Y-102938020D02*
X153163609Y-102938020D01*
X153163609Y-102938020D02*
X153068371Y-102985639D01*
X153068371Y-102985639D02*
X153020752Y-103080877D01*
X153020752Y-103080877D02*
X153020752Y-103271353D01*
X153020752Y-103271353D02*
X153068371Y-103366591D01*
X153639800Y-102938020D02*
X153687419Y-103033258D01*
X153687419Y-103033258D02*
X153687419Y-103271353D01*
X153687419Y-103271353D02*
X153639800Y-103366591D01*
X153639800Y-103366591D02*
X153544561Y-103414210D01*
X153544561Y-103414210D02*
X153449323Y-103414210D01*
X153449323Y-103414210D02*
X153354085Y-103366591D01*
X153354085Y-103366591D02*
X153306466Y-103271353D01*
X153306466Y-103271353D02*
X153306466Y-103033258D01*
X153306466Y-103033258D02*
X153258847Y-102938020D01*
X153687419Y-102461829D02*
X153020752Y-102461829D01*
X153211228Y-102461829D02*
X153115990Y-102414210D01*
X153115990Y-102414210D02*
X153068371Y-102366591D01*
X153068371Y-102366591D02*
X153020752Y-102271353D01*
X153020752Y-102271353D02*
X153020752Y-102176115D01*
X153020752Y-101985638D02*
X153020752Y-101604686D01*
X152687419Y-101842781D02*
X153544561Y-101842781D01*
X153544561Y-101842781D02*
X153639800Y-101795162D01*
X153639800Y-101795162D02*
X153687419Y-101699924D01*
X153687419Y-101699924D02*
X153687419Y-101604686D01*
X153687419Y-101271352D02*
X153020752Y-101271352D01*
X153211228Y-101271352D02*
X153115990Y-101223733D01*
X153115990Y-101223733D02*
X153068371Y-101176114D01*
X153068371Y-101176114D02*
X153020752Y-101080876D01*
X153020752Y-101080876D02*
X153020752Y-100985638D01*
X153687419Y-100652304D02*
X153020752Y-100652304D01*
X152687419Y-100652304D02*
X152735038Y-100699923D01*
X152735038Y-100699923D02*
X152782657Y-100652304D01*
X152782657Y-100652304D02*
X152735038Y-100604685D01*
X152735038Y-100604685D02*
X152687419Y-100652304D01*
X152687419Y-100652304D02*
X152782657Y-100652304D01*
X153687419Y-99747543D02*
X152687419Y-99747543D01*
X153639800Y-99747543D02*
X153687419Y-99842781D01*
X153687419Y-99842781D02*
X153687419Y-100033257D01*
X153687419Y-100033257D02*
X153639800Y-100128495D01*
X153639800Y-100128495D02*
X153592180Y-100176114D01*
X153592180Y-100176114D02*
X153496942Y-100223733D01*
X153496942Y-100223733D02*
X153211228Y-100223733D01*
X153211228Y-100223733D02*
X153115990Y-100176114D01*
X153115990Y-100176114D02*
X153068371Y-100128495D01*
X153068371Y-100128495D02*
X153020752Y-100033257D01*
X153020752Y-100033257D02*
X153020752Y-99842781D01*
X153020752Y-99842781D02*
X153068371Y-99747543D01*
X153020752Y-98842781D02*
X153830276Y-98842781D01*
X153830276Y-98842781D02*
X153925514Y-98890400D01*
X153925514Y-98890400D02*
X153973133Y-98938019D01*
X153973133Y-98938019D02*
X154020752Y-99033257D01*
X154020752Y-99033257D02*
X154020752Y-99176114D01*
X154020752Y-99176114D02*
X153973133Y-99271352D01*
X153639800Y-98842781D02*
X153687419Y-98938019D01*
X153687419Y-98938019D02*
X153687419Y-99128495D01*
X153687419Y-99128495D02*
X153639800Y-99223733D01*
X153639800Y-99223733D02*
X153592180Y-99271352D01*
X153592180Y-99271352D02*
X153496942Y-99318971D01*
X153496942Y-99318971D02*
X153211228Y-99318971D01*
X153211228Y-99318971D02*
X153115990Y-99271352D01*
X153115990Y-99271352D02*
X153068371Y-99223733D01*
X153068371Y-99223733D02*
X153020752Y-99128495D01*
X153020752Y-99128495D02*
X153020752Y-98938019D01*
X153020752Y-98938019D02*
X153068371Y-98842781D01*
X153639800Y-97985638D02*
X153687419Y-98080876D01*
X153687419Y-98080876D02*
X153687419Y-98271352D01*
X153687419Y-98271352D02*
X153639800Y-98366590D01*
X153639800Y-98366590D02*
X153544561Y-98414209D01*
X153544561Y-98414209D02*
X153163609Y-98414209D01*
X153163609Y-98414209D02*
X153068371Y-98366590D01*
X153068371Y-98366590D02*
X153020752Y-98271352D01*
X153020752Y-98271352D02*
X153020752Y-98080876D01*
X153020752Y-98080876D02*
X153068371Y-97985638D01*
X153068371Y-97985638D02*
X153163609Y-97938019D01*
X153163609Y-97938019D02*
X153258847Y-97938019D01*
X153258847Y-97938019D02*
X153354085Y-98414209D01*
D11*
X127105054Y-101589504D02*
X127581244Y-101589504D01*
X127009816Y-101875219D02*
X127343149Y-100875219D01*
X127343149Y-100875219D02*
X127676482Y-101875219D01*
X128533625Y-101875219D02*
X127962197Y-101875219D01*
X128247911Y-101875219D02*
X128247911Y-100875219D01*
X128247911Y-100875219D02*
X128152673Y-101018076D01*
X128152673Y-101018076D02*
X128057435Y-101113314D01*
X128057435Y-101113314D02*
X127962197Y-101160933D01*
X129390768Y-100875219D02*
X129200292Y-100875219D01*
X129200292Y-100875219D02*
X129105054Y-100922838D01*
X129105054Y-100922838D02*
X129057435Y-100970457D01*
X129057435Y-100970457D02*
X128962197Y-101113314D01*
X128962197Y-101113314D02*
X128914578Y-101303790D01*
X128914578Y-101303790D02*
X128914578Y-101684742D01*
X128914578Y-101684742D02*
X128962197Y-101779980D01*
X128962197Y-101779980D02*
X129009816Y-101827600D01*
X129009816Y-101827600D02*
X129105054Y-101875219D01*
X129105054Y-101875219D02*
X129295530Y-101875219D01*
X129295530Y-101875219D02*
X129390768Y-101827600D01*
X129390768Y-101827600D02*
X129438387Y-101779980D01*
X129438387Y-101779980D02*
X129486006Y-101684742D01*
X129486006Y-101684742D02*
X129486006Y-101446647D01*
X129486006Y-101446647D02*
X129438387Y-101351409D01*
X129438387Y-101351409D02*
X129390768Y-101303790D01*
X129390768Y-101303790D02*
X129295530Y-101256171D01*
X129295530Y-101256171D02*
X129105054Y-101256171D01*
X129105054Y-101256171D02*
X129009816Y-101303790D01*
X129009816Y-101303790D02*
X128962197Y-101351409D01*
X128962197Y-101351409D02*
X128914578Y-101446647D01*
X126905054Y-104179560D02*
X127381244Y-104179560D01*
X126809816Y-104465275D02*
X127143149Y-103465275D01*
X127143149Y-103465275D02*
X127476482Y-104465275D01*
X128333625Y-104465275D02*
X127762197Y-104465275D01*
X128047911Y-104465275D02*
X128047911Y-103465275D01*
X128047911Y-103465275D02*
X127952673Y-103608132D01*
X127952673Y-103608132D02*
X127857435Y-103703370D01*
X127857435Y-103703370D02*
X127762197Y-103750989D01*
X128666959Y-103465275D02*
X129333625Y-103465275D01*
X129333625Y-103465275D02*
X128905054Y-104465275D01*
X130428863Y-103417656D02*
X129571721Y-104703370D01*
X126809816Y-105075219D02*
X127143149Y-106075219D01*
X127143149Y-106075219D02*
X127476482Y-105075219D01*
X128381244Y-105979980D02*
X128333625Y-106027600D01*
X128333625Y-106027600D02*
X128190768Y-106075219D01*
X128190768Y-106075219D02*
X128095530Y-106075219D01*
X128095530Y-106075219D02*
X127952673Y-106027600D01*
X127952673Y-106027600D02*
X127857435Y-105932361D01*
X127857435Y-105932361D02*
X127809816Y-105837123D01*
X127809816Y-105837123D02*
X127762197Y-105646647D01*
X127762197Y-105646647D02*
X127762197Y-105503790D01*
X127762197Y-105503790D02*
X127809816Y-105313314D01*
X127809816Y-105313314D02*
X127857435Y-105218076D01*
X127857435Y-105218076D02*
X127952673Y-105122838D01*
X127952673Y-105122838D02*
X128095530Y-105075219D01*
X128095530Y-105075219D02*
X128190768Y-105075219D01*
X128190768Y-105075219D02*
X128333625Y-105122838D01*
X128333625Y-105122838D02*
X128381244Y-105170457D01*
X129381244Y-105979980D02*
X129333625Y-106027600D01*
X129333625Y-106027600D02*
X129190768Y-106075219D01*
X129190768Y-106075219D02*
X129095530Y-106075219D01*
X129095530Y-106075219D02*
X128952673Y-106027600D01*
X128952673Y-106027600D02*
X128857435Y-105932361D01*
X128857435Y-105932361D02*
X128809816Y-105837123D01*
X128809816Y-105837123D02*
X128762197Y-105646647D01*
X128762197Y-105646647D02*
X128762197Y-105503790D01*
X128762197Y-105503790D02*
X128809816Y-105313314D01*
X128809816Y-105313314D02*
X128857435Y-105218076D01*
X128857435Y-105218076D02*
X128952673Y-105122838D01*
X128952673Y-105122838D02*
X129095530Y-105075219D01*
X129095530Y-105075219D02*
X129190768Y-105075219D01*
X129190768Y-105075219D02*
X129333625Y-105122838D01*
X129333625Y-105122838D02*
X129381244Y-105170457D01*
D10*
X157458427Y-107890401D02*
X157410808Y-107938020D01*
X157410808Y-107938020D02*
X157267951Y-108033258D01*
X157267951Y-108033258D02*
X157172713Y-108080877D01*
X157172713Y-108080877D02*
X157029856Y-108128496D01*
X157029856Y-108128496D02*
X156791760Y-108176115D01*
X156791760Y-108176115D02*
X156601284Y-108176115D01*
X156601284Y-108176115D02*
X156363189Y-108128496D01*
X156363189Y-108128496D02*
X156220332Y-108080877D01*
X156220332Y-108080877D02*
X156125094Y-108033258D01*
X156125094Y-108033258D02*
X155982236Y-107938020D01*
X155982236Y-107938020D02*
X155934617Y-107890401D01*
X156982236Y-106938020D02*
X157029856Y-106985639D01*
X157029856Y-106985639D02*
X157077475Y-107128496D01*
X157077475Y-107128496D02*
X157077475Y-107223734D01*
X157077475Y-107223734D02*
X157029856Y-107366591D01*
X157029856Y-107366591D02*
X156934617Y-107461829D01*
X156934617Y-107461829D02*
X156839379Y-107509448D01*
X156839379Y-107509448D02*
X156648903Y-107557067D01*
X156648903Y-107557067D02*
X156506046Y-107557067D01*
X156506046Y-107557067D02*
X156315570Y-107509448D01*
X156315570Y-107509448D02*
X156220332Y-107461829D01*
X156220332Y-107461829D02*
X156125094Y-107366591D01*
X156125094Y-107366591D02*
X156077475Y-107223734D01*
X156077475Y-107223734D02*
X156077475Y-107128496D01*
X156077475Y-107128496D02*
X156125094Y-106985639D01*
X156125094Y-106985639D02*
X156172713Y-106938020D01*
X157458427Y-106604686D02*
X157410808Y-106557067D01*
X157410808Y-106557067D02*
X157267951Y-106461829D01*
X157267951Y-106461829D02*
X157172713Y-106414210D01*
X157172713Y-106414210D02*
X157029856Y-106366591D01*
X157029856Y-106366591D02*
X156791760Y-106318972D01*
X156791760Y-106318972D02*
X156601284Y-106318972D01*
X156601284Y-106318972D02*
X156363189Y-106366591D01*
X156363189Y-106366591D02*
X156220332Y-106414210D01*
X156220332Y-106414210D02*
X156125094Y-106461829D01*
X156125094Y-106461829D02*
X155982236Y-106557067D01*
X155982236Y-106557067D02*
X155934617Y-106604686D01*
X156172713Y-105128495D02*
X156125094Y-105080876D01*
X156125094Y-105080876D02*
X156077475Y-104985638D01*
X156077475Y-104985638D02*
X156077475Y-104747543D01*
X156077475Y-104747543D02*
X156125094Y-104652305D01*
X156125094Y-104652305D02*
X156172713Y-104604686D01*
X156172713Y-104604686D02*
X156267951Y-104557067D01*
X156267951Y-104557067D02*
X156363189Y-104557067D01*
X156363189Y-104557067D02*
X156506046Y-104604686D01*
X156506046Y-104604686D02*
X157077475Y-105176114D01*
X157077475Y-105176114D02*
X157077475Y-104557067D01*
X156077475Y-103938019D02*
X156077475Y-103842781D01*
X156077475Y-103842781D02*
X156125094Y-103747543D01*
X156125094Y-103747543D02*
X156172713Y-103699924D01*
X156172713Y-103699924D02*
X156267951Y-103652305D01*
X156267951Y-103652305D02*
X156458427Y-103604686D01*
X156458427Y-103604686D02*
X156696522Y-103604686D01*
X156696522Y-103604686D02*
X156886998Y-103652305D01*
X156886998Y-103652305D02*
X156982236Y-103699924D01*
X156982236Y-103699924D02*
X157029856Y-103747543D01*
X157029856Y-103747543D02*
X157077475Y-103842781D01*
X157077475Y-103842781D02*
X157077475Y-103938019D01*
X157077475Y-103938019D02*
X157029856Y-104033257D01*
X157029856Y-104033257D02*
X156982236Y-104080876D01*
X156982236Y-104080876D02*
X156886998Y-104128495D01*
X156886998Y-104128495D02*
X156696522Y-104176114D01*
X156696522Y-104176114D02*
X156458427Y-104176114D01*
X156458427Y-104176114D02*
X156267951Y-104128495D01*
X156267951Y-104128495D02*
X156172713Y-104080876D01*
X156172713Y-104080876D02*
X156125094Y-104033257D01*
X156125094Y-104033257D02*
X156077475Y-103938019D01*
X156172713Y-103223733D02*
X156125094Y-103176114D01*
X156125094Y-103176114D02*
X156077475Y-103080876D01*
X156077475Y-103080876D02*
X156077475Y-102842781D01*
X156077475Y-102842781D02*
X156125094Y-102747543D01*
X156125094Y-102747543D02*
X156172713Y-102699924D01*
X156172713Y-102699924D02*
X156267951Y-102652305D01*
X156267951Y-102652305D02*
X156363189Y-102652305D01*
X156363189Y-102652305D02*
X156506046Y-102699924D01*
X156506046Y-102699924D02*
X157077475Y-103271352D01*
X157077475Y-103271352D02*
X157077475Y-102652305D01*
X156077475Y-101747543D02*
X156077475Y-102223733D01*
X156077475Y-102223733D02*
X156553665Y-102271352D01*
X156553665Y-102271352D02*
X156506046Y-102223733D01*
X156506046Y-102223733D02*
X156458427Y-102128495D01*
X156458427Y-102128495D02*
X156458427Y-101890400D01*
X156458427Y-101890400D02*
X156506046Y-101795162D01*
X156506046Y-101795162D02*
X156553665Y-101747543D01*
X156553665Y-101747543D02*
X156648903Y-101699924D01*
X156648903Y-101699924D02*
X156886998Y-101699924D01*
X156886998Y-101699924D02*
X156982236Y-101747543D01*
X156982236Y-101747543D02*
X157029856Y-101795162D01*
X157029856Y-101795162D02*
X157077475Y-101890400D01*
X157077475Y-101890400D02*
X157077475Y-102128495D01*
X157077475Y-102128495D02*
X157029856Y-102223733D01*
X157029856Y-102223733D02*
X156982236Y-102271352D01*
X158687419Y-108176115D02*
X157687419Y-108176115D01*
X157687419Y-108176115D02*
X158401704Y-107842782D01*
X158401704Y-107842782D02*
X157687419Y-107509449D01*
X157687419Y-107509449D02*
X158687419Y-107509449D01*
X158687419Y-106890401D02*
X158639800Y-106985639D01*
X158639800Y-106985639D02*
X158592180Y-107033258D01*
X158592180Y-107033258D02*
X158496942Y-107080877D01*
X158496942Y-107080877D02*
X158211228Y-107080877D01*
X158211228Y-107080877D02*
X158115990Y-107033258D01*
X158115990Y-107033258D02*
X158068371Y-106985639D01*
X158068371Y-106985639D02*
X158020752Y-106890401D01*
X158020752Y-106890401D02*
X158020752Y-106747544D01*
X158020752Y-106747544D02*
X158068371Y-106652306D01*
X158068371Y-106652306D02*
X158115990Y-106604687D01*
X158115990Y-106604687D02*
X158211228Y-106557068D01*
X158211228Y-106557068D02*
X158496942Y-106557068D01*
X158496942Y-106557068D02*
X158592180Y-106604687D01*
X158592180Y-106604687D02*
X158639800Y-106652306D01*
X158639800Y-106652306D02*
X158687419Y-106747544D01*
X158687419Y-106747544D02*
X158687419Y-106890401D01*
X158687419Y-105699925D02*
X157687419Y-105699925D01*
X158639800Y-105699925D02*
X158687419Y-105795163D01*
X158687419Y-105795163D02*
X158687419Y-105985639D01*
X158687419Y-105985639D02*
X158639800Y-106080877D01*
X158639800Y-106080877D02*
X158592180Y-106128496D01*
X158592180Y-106128496D02*
X158496942Y-106176115D01*
X158496942Y-106176115D02*
X158211228Y-106176115D01*
X158211228Y-106176115D02*
X158115990Y-106128496D01*
X158115990Y-106128496D02*
X158068371Y-106080877D01*
X158068371Y-106080877D02*
X158020752Y-105985639D01*
X158020752Y-105985639D02*
X158020752Y-105795163D01*
X158020752Y-105795163D02*
X158068371Y-105699925D01*
X158020752Y-104795163D02*
X158687419Y-104795163D01*
X158020752Y-105223734D02*
X158544561Y-105223734D01*
X158544561Y-105223734D02*
X158639800Y-105176115D01*
X158639800Y-105176115D02*
X158687419Y-105080877D01*
X158687419Y-105080877D02*
X158687419Y-104938020D01*
X158687419Y-104938020D02*
X158639800Y-104842782D01*
X158639800Y-104842782D02*
X158592180Y-104795163D01*
X158687419Y-104176115D02*
X158639800Y-104271353D01*
X158639800Y-104271353D02*
X158544561Y-104318972D01*
X158544561Y-104318972D02*
X157687419Y-104318972D01*
X158687419Y-103366591D02*
X158163609Y-103366591D01*
X158163609Y-103366591D02*
X158068371Y-103414210D01*
X158068371Y-103414210D02*
X158020752Y-103509448D01*
X158020752Y-103509448D02*
X158020752Y-103699924D01*
X158020752Y-103699924D02*
X158068371Y-103795162D01*
X158639800Y-103366591D02*
X158687419Y-103461829D01*
X158687419Y-103461829D02*
X158687419Y-103699924D01*
X158687419Y-103699924D02*
X158639800Y-103795162D01*
X158639800Y-103795162D02*
X158544561Y-103842781D01*
X158544561Y-103842781D02*
X158449323Y-103842781D01*
X158449323Y-103842781D02*
X158354085Y-103795162D01*
X158354085Y-103795162D02*
X158306466Y-103699924D01*
X158306466Y-103699924D02*
X158306466Y-103461829D01*
X158306466Y-103461829D02*
X158258847Y-103366591D01*
X158687419Y-102890400D02*
X158020752Y-102890400D01*
X158211228Y-102890400D02*
X158115990Y-102842781D01*
X158115990Y-102842781D02*
X158068371Y-102795162D01*
X158068371Y-102795162D02*
X158020752Y-102699924D01*
X158020752Y-102699924D02*
X158020752Y-102604686D01*
X158592180Y-100938019D02*
X158639800Y-100985638D01*
X158639800Y-100985638D02*
X158687419Y-101128495D01*
X158687419Y-101128495D02*
X158687419Y-101223733D01*
X158687419Y-101223733D02*
X158639800Y-101366590D01*
X158639800Y-101366590D02*
X158544561Y-101461828D01*
X158544561Y-101461828D02*
X158449323Y-101509447D01*
X158449323Y-101509447D02*
X158258847Y-101557066D01*
X158258847Y-101557066D02*
X158115990Y-101557066D01*
X158115990Y-101557066D02*
X157925514Y-101509447D01*
X157925514Y-101509447D02*
X157830276Y-101461828D01*
X157830276Y-101461828D02*
X157735038Y-101366590D01*
X157735038Y-101366590D02*
X157687419Y-101223733D01*
X157687419Y-101223733D02*
X157687419Y-101128495D01*
X157687419Y-101128495D02*
X157735038Y-100985638D01*
X157735038Y-100985638D02*
X157782657Y-100938019D01*
X158687419Y-100509447D02*
X158020752Y-100509447D01*
X157687419Y-100509447D02*
X157735038Y-100557066D01*
X157735038Y-100557066D02*
X157782657Y-100509447D01*
X157782657Y-100509447D02*
X157735038Y-100461828D01*
X157735038Y-100461828D02*
X157687419Y-100509447D01*
X157687419Y-100509447D02*
X157782657Y-100509447D01*
X158687419Y-100033257D02*
X158020752Y-100033257D01*
X158211228Y-100033257D02*
X158115990Y-99985638D01*
X158115990Y-99985638D02*
X158068371Y-99938019D01*
X158068371Y-99938019D02*
X158020752Y-99842781D01*
X158020752Y-99842781D02*
X158020752Y-99747543D01*
X158639800Y-98985638D02*
X158687419Y-99080876D01*
X158687419Y-99080876D02*
X158687419Y-99271352D01*
X158687419Y-99271352D02*
X158639800Y-99366590D01*
X158639800Y-99366590D02*
X158592180Y-99414209D01*
X158592180Y-99414209D02*
X158496942Y-99461828D01*
X158496942Y-99461828D02*
X158211228Y-99461828D01*
X158211228Y-99461828D02*
X158115990Y-99414209D01*
X158115990Y-99414209D02*
X158068371Y-99366590D01*
X158068371Y-99366590D02*
X158020752Y-99271352D01*
X158020752Y-99271352D02*
X158020752Y-99080876D01*
X158020752Y-99080876D02*
X158068371Y-98985638D01*
X158020752Y-98128495D02*
X158687419Y-98128495D01*
X158020752Y-98557066D02*
X158544561Y-98557066D01*
X158544561Y-98557066D02*
X158639800Y-98509447D01*
X158639800Y-98509447D02*
X158687419Y-98414209D01*
X158687419Y-98414209D02*
X158687419Y-98271352D01*
X158687419Y-98271352D02*
X158639800Y-98176114D01*
X158639800Y-98176114D02*
X158592180Y-98128495D01*
X158687419Y-97652304D02*
X158020752Y-97652304D01*
X157687419Y-97652304D02*
X157735038Y-97699923D01*
X157735038Y-97699923D02*
X157782657Y-97652304D01*
X157782657Y-97652304D02*
X157735038Y-97604685D01*
X157735038Y-97604685D02*
X157687419Y-97652304D01*
X157687419Y-97652304D02*
X157782657Y-97652304D01*
X158020752Y-97318971D02*
X158020752Y-96938019D01*
X157687419Y-97176114D02*
X158544561Y-97176114D01*
X158544561Y-97176114D02*
X158639800Y-97128495D01*
X158639800Y-97128495D02*
X158687419Y-97033257D01*
X158687419Y-97033257D02*
X158687419Y-96938019D01*
X158639800Y-96652304D02*
X158687419Y-96557066D01*
X158687419Y-96557066D02*
X158687419Y-96366590D01*
X158687419Y-96366590D02*
X158639800Y-96271352D01*
X158639800Y-96271352D02*
X158544561Y-96223733D01*
X158544561Y-96223733D02*
X158496942Y-96223733D01*
X158496942Y-96223733D02*
X158401704Y-96271352D01*
X158401704Y-96271352D02*
X158354085Y-96366590D01*
X158354085Y-96366590D02*
X158354085Y-96509447D01*
X158354085Y-96509447D02*
X158306466Y-96604685D01*
X158306466Y-96604685D02*
X158211228Y-96652304D01*
X158211228Y-96652304D02*
X158163609Y-96652304D01*
X158163609Y-96652304D02*
X158068371Y-96604685D01*
X158068371Y-96604685D02*
X158020752Y-96509447D01*
X158020752Y-96509447D02*
X158020752Y-96366590D01*
X158020752Y-96366590D02*
X158068371Y-96271352D01*
X163020752Y-108271353D02*
X163687419Y-108080877D01*
X163687419Y-108080877D02*
X163211228Y-107890401D01*
X163211228Y-107890401D02*
X163687419Y-107699925D01*
X163687419Y-107699925D02*
X163020752Y-107509449D01*
X163020752Y-107223734D02*
X163687419Y-107033258D01*
X163687419Y-107033258D02*
X163211228Y-106842782D01*
X163211228Y-106842782D02*
X163687419Y-106652306D01*
X163687419Y-106652306D02*
X163020752Y-106461830D01*
X163020752Y-106176115D02*
X163687419Y-105985639D01*
X163687419Y-105985639D02*
X163211228Y-105795163D01*
X163211228Y-105795163D02*
X163687419Y-105604687D01*
X163687419Y-105604687D02*
X163020752Y-105414211D01*
X163592180Y-105033258D02*
X163639800Y-104985639D01*
X163639800Y-104985639D02*
X163687419Y-105033258D01*
X163687419Y-105033258D02*
X163639800Y-105080877D01*
X163639800Y-105080877D02*
X163592180Y-105033258D01*
X163592180Y-105033258D02*
X163687419Y-105033258D01*
X163687419Y-104557068D02*
X163020752Y-104557068D01*
X163115990Y-104557068D02*
X163068371Y-104509449D01*
X163068371Y-104509449D02*
X163020752Y-104414211D01*
X163020752Y-104414211D02*
X163020752Y-104271354D01*
X163020752Y-104271354D02*
X163068371Y-104176116D01*
X163068371Y-104176116D02*
X163163609Y-104128497D01*
X163163609Y-104128497D02*
X163687419Y-104128497D01*
X163163609Y-104128497D02*
X163068371Y-104080878D01*
X163068371Y-104080878D02*
X163020752Y-103985640D01*
X163020752Y-103985640D02*
X163020752Y-103842783D01*
X163020752Y-103842783D02*
X163068371Y-103747544D01*
X163068371Y-103747544D02*
X163163609Y-103699925D01*
X163163609Y-103699925D02*
X163687419Y-103699925D01*
X163687419Y-103080878D02*
X163639800Y-103176116D01*
X163639800Y-103176116D02*
X163592180Y-103223735D01*
X163592180Y-103223735D02*
X163496942Y-103271354D01*
X163496942Y-103271354D02*
X163211228Y-103271354D01*
X163211228Y-103271354D02*
X163115990Y-103223735D01*
X163115990Y-103223735D02*
X163068371Y-103176116D01*
X163068371Y-103176116D02*
X163020752Y-103080878D01*
X163020752Y-103080878D02*
X163020752Y-102938021D01*
X163020752Y-102938021D02*
X163068371Y-102842783D01*
X163068371Y-102842783D02*
X163115990Y-102795164D01*
X163115990Y-102795164D02*
X163211228Y-102747545D01*
X163211228Y-102747545D02*
X163496942Y-102747545D01*
X163496942Y-102747545D02*
X163592180Y-102795164D01*
X163592180Y-102795164D02*
X163639800Y-102842783D01*
X163639800Y-102842783D02*
X163687419Y-102938021D01*
X163687419Y-102938021D02*
X163687419Y-103080878D01*
X163687419Y-101890402D02*
X162687419Y-101890402D01*
X163639800Y-101890402D02*
X163687419Y-101985640D01*
X163687419Y-101985640D02*
X163687419Y-102176116D01*
X163687419Y-102176116D02*
X163639800Y-102271354D01*
X163639800Y-102271354D02*
X163592180Y-102318973D01*
X163592180Y-102318973D02*
X163496942Y-102366592D01*
X163496942Y-102366592D02*
X163211228Y-102366592D01*
X163211228Y-102366592D02*
X163115990Y-102318973D01*
X163115990Y-102318973D02*
X163068371Y-102271354D01*
X163068371Y-102271354D02*
X163020752Y-102176116D01*
X163020752Y-102176116D02*
X163020752Y-101985640D01*
X163020752Y-101985640D02*
X163068371Y-101890402D01*
X163020752Y-100985640D02*
X163687419Y-100985640D01*
X163020752Y-101414211D02*
X163544561Y-101414211D01*
X163544561Y-101414211D02*
X163639800Y-101366592D01*
X163639800Y-101366592D02*
X163687419Y-101271354D01*
X163687419Y-101271354D02*
X163687419Y-101128497D01*
X163687419Y-101128497D02*
X163639800Y-101033259D01*
X163639800Y-101033259D02*
X163592180Y-100985640D01*
X163687419Y-100366592D02*
X163639800Y-100461830D01*
X163639800Y-100461830D02*
X163544561Y-100509449D01*
X163544561Y-100509449D02*
X162687419Y-100509449D01*
X163687419Y-99557068D02*
X163163609Y-99557068D01*
X163163609Y-99557068D02*
X163068371Y-99604687D01*
X163068371Y-99604687D02*
X163020752Y-99699925D01*
X163020752Y-99699925D02*
X163020752Y-99890401D01*
X163020752Y-99890401D02*
X163068371Y-99985639D01*
X163639800Y-99557068D02*
X163687419Y-99652306D01*
X163687419Y-99652306D02*
X163687419Y-99890401D01*
X163687419Y-99890401D02*
X163639800Y-99985639D01*
X163639800Y-99985639D02*
X163544561Y-100033258D01*
X163544561Y-100033258D02*
X163449323Y-100033258D01*
X163449323Y-100033258D02*
X163354085Y-99985639D01*
X163354085Y-99985639D02*
X163306466Y-99890401D01*
X163306466Y-99890401D02*
X163306466Y-99652306D01*
X163306466Y-99652306D02*
X163258847Y-99557068D01*
X163687419Y-99080877D02*
X163020752Y-99080877D01*
X163211228Y-99080877D02*
X163115990Y-99033258D01*
X163115990Y-99033258D02*
X163068371Y-98985639D01*
X163068371Y-98985639D02*
X163020752Y-98890401D01*
X163020752Y-98890401D02*
X163020752Y-98795163D01*
X163639800Y-98033258D02*
X163687419Y-98128496D01*
X163687419Y-98128496D02*
X163687419Y-98318972D01*
X163687419Y-98318972D02*
X163639800Y-98414210D01*
X163639800Y-98414210D02*
X163592180Y-98461829D01*
X163592180Y-98461829D02*
X163496942Y-98509448D01*
X163496942Y-98509448D02*
X163211228Y-98509448D01*
X163211228Y-98509448D02*
X163115990Y-98461829D01*
X163115990Y-98461829D02*
X163068371Y-98414210D01*
X163068371Y-98414210D02*
X163020752Y-98318972D01*
X163020752Y-98318972D02*
X163020752Y-98128496D01*
X163020752Y-98128496D02*
X163068371Y-98033258D01*
X163687419Y-97604686D02*
X163020752Y-97604686D01*
X162687419Y-97604686D02*
X162735038Y-97652305D01*
X162735038Y-97652305D02*
X162782657Y-97604686D01*
X162782657Y-97604686D02*
X162735038Y-97557067D01*
X162735038Y-97557067D02*
X162687419Y-97604686D01*
X162687419Y-97604686D02*
X162782657Y-97604686D01*
X163687419Y-97128496D02*
X163020752Y-97128496D01*
X163211228Y-97128496D02*
X163115990Y-97080877D01*
X163115990Y-97080877D02*
X163068371Y-97033258D01*
X163068371Y-97033258D02*
X163020752Y-96938020D01*
X163020752Y-96938020D02*
X163020752Y-96842782D01*
X163639800Y-96080877D02*
X163687419Y-96176115D01*
X163687419Y-96176115D02*
X163687419Y-96366591D01*
X163687419Y-96366591D02*
X163639800Y-96461829D01*
X163639800Y-96461829D02*
X163592180Y-96509448D01*
X163592180Y-96509448D02*
X163496942Y-96557067D01*
X163496942Y-96557067D02*
X163211228Y-96557067D01*
X163211228Y-96557067D02*
X163115990Y-96509448D01*
X163115990Y-96509448D02*
X163068371Y-96461829D01*
X163068371Y-96461829D02*
X163020752Y-96366591D01*
X163020752Y-96366591D02*
X163020752Y-96176115D01*
X163020752Y-96176115D02*
X163068371Y-96080877D01*
X163020752Y-95223734D02*
X163687419Y-95223734D01*
X163020752Y-95652305D02*
X163544561Y-95652305D01*
X163544561Y-95652305D02*
X163639800Y-95604686D01*
X163639800Y-95604686D02*
X163687419Y-95509448D01*
X163687419Y-95509448D02*
X163687419Y-95366591D01*
X163687419Y-95366591D02*
X163639800Y-95271353D01*
X163639800Y-95271353D02*
X163592180Y-95223734D01*
X163687419Y-94747543D02*
X163020752Y-94747543D01*
X162687419Y-94747543D02*
X162735038Y-94795162D01*
X162735038Y-94795162D02*
X162782657Y-94747543D01*
X162782657Y-94747543D02*
X162735038Y-94699924D01*
X162735038Y-94699924D02*
X162687419Y-94747543D01*
X162687419Y-94747543D02*
X162782657Y-94747543D01*
X163020752Y-94414210D02*
X163020752Y-94033258D01*
X162687419Y-94271353D02*
X163544561Y-94271353D01*
X163544561Y-94271353D02*
X163639800Y-94223734D01*
X163639800Y-94223734D02*
X163687419Y-94128496D01*
X163687419Y-94128496D02*
X163687419Y-94033258D01*
X163639800Y-93747543D02*
X163687419Y-93652305D01*
X163687419Y-93652305D02*
X163687419Y-93461829D01*
X163687419Y-93461829D02*
X163639800Y-93366591D01*
X163639800Y-93366591D02*
X163544561Y-93318972D01*
X163544561Y-93318972D02*
X163496942Y-93318972D01*
X163496942Y-93318972D02*
X163401704Y-93366591D01*
X163401704Y-93366591D02*
X163354085Y-93461829D01*
X163354085Y-93461829D02*
X163354085Y-93604686D01*
X163354085Y-93604686D02*
X163306466Y-93699924D01*
X163306466Y-93699924D02*
X163211228Y-93747543D01*
X163211228Y-93747543D02*
X163163609Y-93747543D01*
X163163609Y-93747543D02*
X163068371Y-93699924D01*
X163068371Y-93699924D02*
X163020752Y-93604686D01*
X163020752Y-93604686D02*
X163020752Y-93461829D01*
X163020752Y-93461829D02*
X163068371Y-93366591D01*
X163592180Y-92890400D02*
X163639800Y-92842781D01*
X163639800Y-92842781D02*
X163687419Y-92890400D01*
X163687419Y-92890400D02*
X163639800Y-92938019D01*
X163639800Y-92938019D02*
X163592180Y-92890400D01*
X163592180Y-92890400D02*
X163687419Y-92890400D01*
X163639800Y-91985639D02*
X163687419Y-92080877D01*
X163687419Y-92080877D02*
X163687419Y-92271353D01*
X163687419Y-92271353D02*
X163639800Y-92366591D01*
X163639800Y-92366591D02*
X163592180Y-92414210D01*
X163592180Y-92414210D02*
X163496942Y-92461829D01*
X163496942Y-92461829D02*
X163211228Y-92461829D01*
X163211228Y-92461829D02*
X163115990Y-92414210D01*
X163115990Y-92414210D02*
X163068371Y-92366591D01*
X163068371Y-92366591D02*
X163020752Y-92271353D01*
X163020752Y-92271353D02*
X163020752Y-92080877D01*
X163020752Y-92080877D02*
X163068371Y-91985639D01*
X163687419Y-91414210D02*
X163639800Y-91509448D01*
X163639800Y-91509448D02*
X163592180Y-91557067D01*
X163592180Y-91557067D02*
X163496942Y-91604686D01*
X163496942Y-91604686D02*
X163211228Y-91604686D01*
X163211228Y-91604686D02*
X163115990Y-91557067D01*
X163115990Y-91557067D02*
X163068371Y-91509448D01*
X163068371Y-91509448D02*
X163020752Y-91414210D01*
X163020752Y-91414210D02*
X163020752Y-91271353D01*
X163020752Y-91271353D02*
X163068371Y-91176115D01*
X163068371Y-91176115D02*
X163115990Y-91128496D01*
X163115990Y-91128496D02*
X163211228Y-91080877D01*
X163211228Y-91080877D02*
X163496942Y-91080877D01*
X163496942Y-91080877D02*
X163592180Y-91128496D01*
X163592180Y-91128496D02*
X163639800Y-91176115D01*
X163639800Y-91176115D02*
X163687419Y-91271353D01*
X163687419Y-91271353D02*
X163687419Y-91414210D01*
X163687419Y-90652305D02*
X163020752Y-90652305D01*
X163115990Y-90652305D02*
X163068371Y-90604686D01*
X163068371Y-90604686D02*
X163020752Y-90509448D01*
X163020752Y-90509448D02*
X163020752Y-90366591D01*
X163020752Y-90366591D02*
X163068371Y-90271353D01*
X163068371Y-90271353D02*
X163163609Y-90223734D01*
X163163609Y-90223734D02*
X163687419Y-90223734D01*
X163163609Y-90223734D02*
X163068371Y-90176115D01*
X163068371Y-90176115D02*
X163020752Y-90080877D01*
X163020752Y-90080877D02*
X163020752Y-89938020D01*
X163020752Y-89938020D02*
X163068371Y-89842781D01*
X163068371Y-89842781D02*
X163163609Y-89795162D01*
X163163609Y-89795162D02*
X163687419Y-89795162D01*
D11*
X127105054Y-108089504D02*
X127581244Y-108089504D01*
X127009816Y-108375219D02*
X127343149Y-107375219D01*
X127343149Y-107375219D02*
X127676482Y-108375219D01*
X128533625Y-108375219D02*
X127962197Y-108375219D01*
X128247911Y-108375219D02*
X128247911Y-107375219D01*
X128247911Y-107375219D02*
X128152673Y-107518076D01*
X128152673Y-107518076D02*
X128057435Y-107613314D01*
X128057435Y-107613314D02*
X127962197Y-107660933D01*
X129105054Y-107803790D02*
X129009816Y-107756171D01*
X129009816Y-107756171D02*
X128962197Y-107708552D01*
X128962197Y-107708552D02*
X128914578Y-107613314D01*
X128914578Y-107613314D02*
X128914578Y-107565695D01*
X128914578Y-107565695D02*
X128962197Y-107470457D01*
X128962197Y-107470457D02*
X129009816Y-107422838D01*
X129009816Y-107422838D02*
X129105054Y-107375219D01*
X129105054Y-107375219D02*
X129295530Y-107375219D01*
X129295530Y-107375219D02*
X129390768Y-107422838D01*
X129390768Y-107422838D02*
X129438387Y-107470457D01*
X129438387Y-107470457D02*
X129486006Y-107565695D01*
X129486006Y-107565695D02*
X129486006Y-107613314D01*
X129486006Y-107613314D02*
X129438387Y-107708552D01*
X129438387Y-107708552D02*
X129390768Y-107756171D01*
X129390768Y-107756171D02*
X129295530Y-107803790D01*
X129295530Y-107803790D02*
X129105054Y-107803790D01*
X129105054Y-107803790D02*
X129009816Y-107851409D01*
X129009816Y-107851409D02*
X128962197Y-107899028D01*
X128962197Y-107899028D02*
X128914578Y-107994266D01*
X128914578Y-107994266D02*
X128914578Y-108184742D01*
X128914578Y-108184742D02*
X128962197Y-108279980D01*
X128962197Y-108279980D02*
X129009816Y-108327600D01*
X129009816Y-108327600D02*
X129105054Y-108375219D01*
X129105054Y-108375219D02*
X129295530Y-108375219D01*
X129295530Y-108375219D02*
X129390768Y-108327600D01*
X129390768Y-108327600D02*
X129438387Y-108279980D01*
X129438387Y-108279980D02*
X129486006Y-108184742D01*
X129486006Y-108184742D02*
X129486006Y-107994266D01*
X129486006Y-107994266D02*
X129438387Y-107899028D01*
X129438387Y-107899028D02*
X129390768Y-107851409D01*
X129390768Y-107851409D02*
X129295530Y-107803790D01*
X123157435Y-95475219D02*
X123395530Y-96475219D01*
X123395530Y-96475219D02*
X123586006Y-95760933D01*
X123586006Y-95760933D02*
X123776482Y-96475219D01*
X123776482Y-96475219D02*
X124014578Y-95475219D01*
X124966958Y-96475219D02*
X124633625Y-95999028D01*
X124395530Y-96475219D02*
X124395530Y-95475219D01*
X124395530Y-95475219D02*
X124776482Y-95475219D01*
X124776482Y-95475219D02*
X124871720Y-95522838D01*
X124871720Y-95522838D02*
X124919339Y-95570457D01*
X124919339Y-95570457D02*
X124966958Y-95665695D01*
X124966958Y-95665695D02*
X124966958Y-95808552D01*
X124966958Y-95808552D02*
X124919339Y-95903790D01*
X124919339Y-95903790D02*
X124871720Y-95951409D01*
X124871720Y-95951409D02*
X124776482Y-95999028D01*
X124776482Y-95999028D02*
X124395530Y-95999028D01*
X123114578Y-95197600D02*
X125057435Y-95197600D01*
D12*
%TO.C,JP1*%
X125700000Y-93280000D02*
X127030000Y-93280000D01*
X125700000Y-94610000D02*
X125700000Y-93280000D01*
X125700000Y-95880000D02*
X125700000Y-98480000D01*
X125700000Y-95880000D02*
X128360000Y-95880000D01*
X125700000Y-98480000D02*
X128360000Y-98480000D01*
X128360000Y-95880000D02*
X128360000Y-98480000D01*
%TO.C,J2*%
X121098000Y-100778000D02*
X122428000Y-100778000D01*
X121098000Y-102108000D02*
X121098000Y-100778000D01*
X121098000Y-103378000D02*
X121098000Y-108518000D01*
X121098000Y-103378000D02*
X123698000Y-103378000D01*
X121098000Y-108518000D02*
X126298000Y-108518000D01*
X123698000Y-100778000D02*
X126298000Y-100778000D01*
X123698000Y-103378000D02*
X123698000Y-100778000D01*
X126298000Y-100778000D02*
X126298000Y-108518000D01*
%TO.C,R2*%
X122943000Y-71758000D02*
X125723000Y-71758000D01*
X122943000Y-80378000D02*
X122943000Y-71758000D01*
X122943000Y-80378000D02*
X125723000Y-80378000D01*
X125723000Y-80378000D02*
X125723000Y-71758000D01*
%TO.C,R1*%
X126118000Y-80658000D02*
X126118000Y-89278000D01*
X128898000Y-80658000D02*
X126118000Y-80658000D01*
X128898000Y-80658000D02*
X128898000Y-89278000D01*
X128898000Y-89278000D02*
X126118000Y-89278000D01*
%TO.C,C1*%
X127684000Y-110205000D02*
X126426000Y-110205000D01*
X127684000Y-112045000D02*
X126426000Y-112045000D01*
%TO.C,R3*%
X126118000Y-71758000D02*
X128898000Y-71758000D01*
X126118000Y-80378000D02*
X126118000Y-71758000D01*
X126118000Y-80378000D02*
X128898000Y-80378000D01*
X128898000Y-80378000D02*
X128898000Y-71758000D01*
%TO.C,U1*%
X130675000Y-71000000D02*
X130675000Y-111880000D01*
X130675000Y-111880000D02*
X148795000Y-111880000D01*
X133675000Y-71060000D02*
X133675000Y-111820000D01*
X133675000Y-111820000D02*
X138735000Y-111820000D01*
X140735000Y-111820000D02*
X145795000Y-111820000D01*
X145795000Y-71060000D02*
X133675000Y-71060000D01*
X145795000Y-111820000D02*
X145795000Y-71060000D01*
X148795000Y-71000000D02*
X130675000Y-71000000D01*
X148795000Y-111880000D02*
X148795000Y-71000000D01*
X138735000Y-111820000D02*
G75*
G02*
X140735000Y-111820000I1000000J0D01*
G01*
%TO.C,R4*%
X122943000Y-80648000D02*
X125723000Y-80648000D01*
X122943000Y-89268000D02*
X122943000Y-80648000D01*
X122943000Y-89268000D02*
X125723000Y-89268000D01*
X125723000Y-89268000D02*
X125723000Y-80648000D01*
%TD*%
M02*
