%TF.GenerationSoftware,KiCad,Pcbnew,8.0.8-8.0.8-0~ubuntu24.04.1*%
%TF.CreationDate,2025-02-06T11:49:32-08:00*%
%TF.ProjectId,flash_board,666c6173-685f-4626-9f61-72642e6b6963,rev?*%
%TF.SameCoordinates,Original*%
%TF.FileFunction,Copper,L1,Top*%
%TF.FilePolarity,Positive*%
%FSLAX46Y46*%
G04 Gerber Fmt 4.6, Leading zero omitted, Abs format (unit mm)*
G04 Created by KiCad (PCBNEW 8.0.8-8.0.8-0~ubuntu24.04.1) date 2025-02-06 11:49:32*
%MOMM*%
%LPD*%
G01*
G04 APERTURE LIST*
%TA.AperFunction,ConnectorPad*%
%ADD10R,9.000000X1.700000*%
%TD*%
%TA.AperFunction,ConnectorPad*%
%ADD11R,8.000000X1.700000*%
%TD*%
%TA.AperFunction,ComponentPad*%
%ADD12R,1.700000X1.700000*%
%TD*%
%TA.AperFunction,ComponentPad*%
%ADD13O,1.700000X1.700000*%
%TD*%
%TA.AperFunction,ComponentPad*%
%ADD14C,1.600000*%
%TD*%
%TA.AperFunction,ComponentPad*%
%ADD15R,2.400000X1.600000*%
%TD*%
%TA.AperFunction,ComponentPad*%
%ADD16O,2.400000X1.600000*%
%TD*%
%TA.AperFunction,ViaPad*%
%ADD17C,1.000000*%
%TD*%
%TA.AperFunction,Conductor*%
%ADD18C,0.300000*%
%TD*%
%TA.AperFunction,Conductor*%
%ADD19C,0.400000*%
%TD*%
G04 APERTURE END LIST*
D10*
%TO.P,J1,b1,Pin_b1*%
%TO.N,+5V*%
X170815000Y-74930000D03*
D11*
%TO.P,J1,b2,Pin_b2*%
%TO.N,/D4*%
X170315000Y-77470000D03*
%TO.P,J1,b3,Pin_b3*%
%TO.N,/~{CART}*%
X170315000Y-80010000D03*
%TO.P,J1,b4,Pin_b4*%
%TO.N,/D5*%
X170315000Y-82550000D03*
%TO.P,J1,b5,Pin_b5*%
%TO.N,/A15*%
X170315000Y-85090000D03*
%TO.P,J1,b6,Pin_b6*%
%TO.N,/A14*%
X170315000Y-87630000D03*
%TO.P,J1,b7,Pin_b7*%
%TO.N,/A13*%
X170315000Y-90170000D03*
%TO.P,J1,b8,Pin_b8*%
%TO.N,/~{WR}*%
X170315000Y-92710000D03*
%TO.P,J1,b9,Pin_b9*%
%TO.N,/~{RD}*%
X170315000Y-95234024D03*
%TO.P,J1,b10,Pin_b10*%
%TO.N,/A12*%
X170315000Y-97790000D03*
%TO.P,J1,b11,Pin_b11*%
%TO.N,/A11*%
X170315000Y-100330000D03*
%TO.P,J1,b12,Pin_b12*%
%TO.N,/A10*%
X170315000Y-102870000D03*
%TO.P,J1,b13,Pin_b13*%
%TO.N,/A9*%
X170315000Y-105410000D03*
%TO.P,J1,b14,Pin_b14*%
%TO.N,/A8*%
X170315000Y-107950000D03*
%TO.P,J1,b15,Pin_b15*%
%TO.N,/A7*%
X170315000Y-110490000D03*
D10*
%TO.P,J1,b16,Pin_b16*%
%TO.N,+5V*%
X170815000Y-113030000D03*
%TD*%
D12*
%TO.P,JP1,1,A*%
%TO.N,/~{WR}*%
X127030000Y-94610000D03*
D13*
%TO.P,JP1,2,B*%
%TO.N,/~{PGM}*%
X127030000Y-97150000D03*
%TD*%
D12*
%TO.P,J2,1,Pin_1*%
%TO.N,+5V*%
X122428000Y-102108000D03*
D13*
%TO.P,J2,2,Pin_2*%
%TO.N,/A16*%
X124968000Y-102108000D03*
%TO.P,J2,3,Pin_3*%
%TO.N,+5V*%
X122428000Y-104648000D03*
%TO.P,J2,4,Pin_4*%
%TO.N,/A17*%
X124968000Y-104648000D03*
%TO.P,J2,5,Pin_5*%
%TO.N,+5V*%
X122428000Y-107188000D03*
%TO.P,J2,6,Pin_6*%
%TO.N,/A18*%
X124968000Y-107188000D03*
%TD*%
D14*
%TO.P,R2,1*%
%TO.N,/A16*%
X124333000Y-78608000D03*
%TO.P,R2,2*%
%TO.N,GND*%
X124333000Y-73528000D03*
%TD*%
%TO.P,R1,1*%
%TO.N,+5V*%
X127508000Y-82428000D03*
%TO.P,R1,2*%
%TO.N,/~{PGM}*%
X127508000Y-87508000D03*
%TD*%
%TO.P,C1,1*%
%TO.N,+5V*%
X128305000Y-111125000D03*
%TO.P,C1,2*%
%TO.N,GND*%
X125805000Y-111125000D03*
%TD*%
%TO.P,R3,1*%
%TO.N,/A17*%
X127508000Y-78608000D03*
%TO.P,R3,2*%
%TO.N,GND*%
X127508000Y-73528000D03*
%TD*%
D15*
%TO.P,U1,1,A18*%
%TO.N,/A18*%
X147355000Y-110490000D03*
D16*
%TO.P,U1,2,A16*%
%TO.N,/A16*%
X147355000Y-107950000D03*
%TO.P,U1,3,A15*%
%TO.N,/A15*%
X147355000Y-105410000D03*
%TO.P,U1,4,A12*%
%TO.N,/A12*%
X147355000Y-102870000D03*
%TO.P,U1,5,A7*%
%TO.N,/A7*%
X147355000Y-100330000D03*
%TO.P,U1,6,A6*%
%TO.N,/A6*%
X147355000Y-97790000D03*
%TO.P,U1,7,A5*%
%TO.N,/A5*%
X147355000Y-95250000D03*
%TO.P,U1,8,A4*%
%TO.N,/A4*%
X147355000Y-92710000D03*
%TO.P,U1,9,A3*%
%TO.N,/A3*%
X147355000Y-90170000D03*
%TO.P,U1,10,A2*%
%TO.N,/A2*%
X147355000Y-87630000D03*
%TO.P,U1,11,A1*%
%TO.N,/A1*%
X147355000Y-85090000D03*
%TO.P,U1,12,A0*%
%TO.N,/A0*%
X147355000Y-82550000D03*
%TO.P,U1,13,D0*%
%TO.N,/D0*%
X147355000Y-80010000D03*
%TO.P,U1,14,D1*%
%TO.N,/D1*%
X147355000Y-77470000D03*
%TO.P,U1,15,D2*%
%TO.N,/D2*%
X147355000Y-74930000D03*
%TO.P,U1,16,GND*%
%TO.N,GND*%
X147355000Y-72390000D03*
%TO.P,U1,17,D3*%
%TO.N,/D3*%
X132115000Y-72390000D03*
%TO.P,U1,18,D4*%
%TO.N,/D4*%
X132115000Y-74930000D03*
%TO.P,U1,19,D5*%
%TO.N,/D5*%
X132115000Y-77470000D03*
%TO.P,U1,20,D6*%
%TO.N,/D6*%
X132115000Y-80010000D03*
%TO.P,U1,21,D7*%
%TO.N,/D7*%
X132115000Y-82550000D03*
%TO.P,U1,22,CE*%
%TO.N,/~{CART}*%
X132115000Y-85090000D03*
%TO.P,U1,23,A10*%
%TO.N,/A10*%
X132115000Y-87630000D03*
%TO.P,U1,24,OE*%
%TO.N,/~{RD}*%
X132115000Y-90170000D03*
%TO.P,U1,25,A11*%
%TO.N,/A11*%
X132115000Y-92710000D03*
%TO.P,U1,26,A9*%
%TO.N,/A9*%
X132115000Y-95250000D03*
%TO.P,U1,27,A8*%
%TO.N,/A8*%
X132115000Y-97790000D03*
%TO.P,U1,28,A13*%
%TO.N,/A13*%
X132115000Y-100330000D03*
%TO.P,U1,29,A14*%
%TO.N,/A14*%
X132115000Y-102870000D03*
%TO.P,U1,30,A17*%
%TO.N,/A17*%
X132115000Y-105410000D03*
%TO.P,U1,31,PGM*%
%TO.N,/~{PGM}*%
X132115000Y-107950000D03*
%TO.P,U1,32,VCC*%
%TO.N,+5V*%
X132115000Y-110490000D03*
%TD*%
D14*
%TO.P,R4,1*%
%TO.N,/A18*%
X124333000Y-87498000D03*
%TO.P,R4,2*%
%TO.N,GND*%
X124333000Y-82418000D03*
%TD*%
D17*
%TO.N,/A16*%
X127569003Y-104909004D03*
%TO.N,/A18*%
X126383000Y-103408000D03*
%TO.N,/D6*%
X164303180Y-84658997D03*
%TO.N,/D7*%
X149860000Y-84201000D03*
%TO.N,/A15*%
X163953248Y-106483248D03*
X162874999Y-89014039D03*
%TO.N,/A4*%
X159841258Y-102342319D03*
X160467000Y-96546484D03*
X165015001Y-102416497D03*
%TO.N,/A14*%
X128283000Y-93008000D03*
X126080000Y-91440000D03*
%TO.N,/~{CART}*%
X128625000Y-85090000D03*
%TO.N,/A0*%
X160909000Y-83658000D03*
%TO.N,/D1*%
X165014998Y-80645000D03*
%TO.N,/D3*%
X164465000Y-75885000D03*
%TO.N,/A7*%
X162777248Y-108923981D03*
X159867000Y-104623981D03*
%TO.N,/D2*%
X164465000Y-78105000D03*
%TO.N,/A5*%
X164121484Y-97846484D03*
%TO.N,/D0*%
X164256426Y-86859932D03*
%TO.N,/A12*%
X163115001Y-100059484D03*
X164371498Y-104460001D03*
%TO.N,/A13*%
X129260000Y-91408000D03*
X127284748Y-89909748D03*
%TO.N,/A3*%
X163373482Y-95946485D03*
%TO.N,/A2*%
X163614287Y-93456791D03*
%TO.N,/A6*%
X160467000Y-100448000D03*
%TD*%
D18*
%TO.N,+5V*%
X129483000Y-80453000D02*
X129483000Y-70485000D01*
X127055000Y-109875000D02*
X128305000Y-111125000D01*
D19*
X128940000Y-110490000D02*
X132115000Y-110490000D01*
X128305000Y-111085000D02*
X128305000Y-111125000D01*
X170815000Y-113030000D02*
X134655000Y-113030000D01*
D18*
X123225000Y-109875000D02*
X127055000Y-109875000D01*
X122428000Y-102108000D02*
X122428000Y-107188000D01*
D19*
X128305000Y-111125000D02*
X128940000Y-110490000D01*
D18*
X124106000Y-70485000D02*
X129483000Y-70485000D01*
X154445024Y-70485000D02*
X158890024Y-74930000D01*
X122428000Y-102108000D02*
X122428000Y-72163000D01*
X122428000Y-109078000D02*
X123225000Y-109875000D01*
D19*
X134655000Y-113030000D02*
X132115000Y-110490000D01*
D18*
X127508000Y-82428000D02*
X129483000Y-80453000D01*
X122428000Y-72163000D02*
X124106000Y-70485000D01*
X158890024Y-74930000D02*
X170815000Y-74930000D01*
X129483000Y-70485000D02*
X154445024Y-70485000D01*
X122428000Y-107188000D02*
X122428000Y-109078000D01*
%TO.N,/~{PGM}*%
X127181472Y-87508000D02*
X127508000Y-87508000D01*
X125095000Y-89594472D02*
X127181472Y-87508000D01*
X127030000Y-97150000D02*
X125095000Y-95215000D01*
X125095000Y-95215000D02*
X125095000Y-89594472D01*
%TO.N,/~{WR}*%
X164765000Y-95966000D02*
X163834516Y-96896484D01*
X170815000Y-92710000D02*
X166553109Y-92710000D01*
X130183000Y-88713472D02*
X127030000Y-91866472D01*
X143358883Y-93980000D02*
X135738883Y-86360000D01*
X161589906Y-96896484D02*
X160188390Y-98298000D01*
X135738883Y-86360000D02*
X131217233Y-86360000D01*
X131217233Y-86360000D02*
X130183000Y-87394233D01*
X160188390Y-98298000D02*
X153196888Y-98298000D01*
X166553109Y-92710000D02*
X164765000Y-94498109D01*
X153196888Y-98298000D02*
X148878888Y-93980000D01*
X164765000Y-94498109D02*
X164765000Y-95966000D01*
X163834516Y-96896484D02*
X161589906Y-96896484D01*
X127030000Y-91866472D02*
X127030000Y-94610000D01*
X148878888Y-93980000D02*
X143358883Y-93980000D01*
X130183000Y-87394233D02*
X130183000Y-88713472D01*
%TO.N,/A16*%
X123028000Y-100168000D02*
X123028000Y-79863000D01*
X139231384Y-107950000D02*
X147355000Y-107950000D01*
X127569003Y-104909004D02*
X129339999Y-106680000D01*
X123028000Y-79863000D02*
X123083000Y-79808000D01*
X137961384Y-106680000D02*
X139231384Y-107950000D01*
X124968000Y-102108000D02*
X123028000Y-100168000D01*
X123133000Y-79808000D02*
X124333000Y-78608000D01*
X124968000Y-102108000D02*
X124968000Y-102073000D01*
X123083000Y-79808000D02*
X123133000Y-79808000D01*
X124968000Y-101772000D02*
X125130000Y-101610000D01*
X129339999Y-106680000D02*
X137961384Y-106680000D01*
%TO.N,/A17*%
X126486503Y-104648000D02*
X127569003Y-103565500D01*
X127569003Y-103565500D02*
X127569003Y-102021997D01*
X124228000Y-98680994D02*
X124228000Y-89370767D01*
X127569003Y-102021997D02*
X124228000Y-98680994D01*
X125883000Y-87715767D02*
X125883000Y-80233000D01*
X127569003Y-103565500D02*
X129413503Y-105410000D01*
X125883000Y-80233000D02*
X127508000Y-78608000D01*
X124968000Y-104648000D02*
X126486503Y-104648000D01*
X124228000Y-89370767D02*
X125883000Y-87715767D01*
X129413503Y-105410000D02*
X132115000Y-105410000D01*
%TO.N,/A18*%
X126383000Y-101684522D02*
X123628000Y-98929522D01*
X147355000Y-110490000D02*
X146085000Y-109220000D01*
X123628000Y-88203000D02*
X124333000Y-87498000D01*
X146085000Y-109220000D02*
X126995000Y-109220000D01*
X124968000Y-107193000D02*
X124968000Y-107188000D01*
X126995000Y-109220000D02*
X124968000Y-107193000D01*
X126383000Y-103408000D02*
X126383000Y-101684522D01*
X123628000Y-98929522D02*
X123628000Y-88203000D01*
%TO.N,/D6*%
X164303180Y-84118205D02*
X160794975Y-80610000D01*
X145187233Y-80010000D02*
X132115000Y-80010000D01*
X164303180Y-84658997D02*
X164303180Y-84118205D01*
X148922767Y-80610000D02*
X148272767Y-81260000D01*
X148272767Y-81260000D02*
X146437233Y-81260000D01*
X146437233Y-81260000D02*
X145187233Y-80010000D01*
X160794975Y-80610000D02*
X148922767Y-80610000D01*
%TO.N,/D7*%
X141327120Y-86340000D02*
X137537120Y-82550000D01*
X149860000Y-84752767D02*
X148272767Y-86340000D01*
X137537120Y-82550000D02*
X132115000Y-82550000D01*
X148272767Y-86340000D02*
X141327120Y-86340000D01*
X149860000Y-84201000D02*
X149860000Y-84752767D01*
%TO.N,/A10*%
X132115000Y-87630000D02*
X130210000Y-89535000D01*
X131217233Y-93980000D02*
X135421384Y-93980000D01*
X135421384Y-93980000D02*
X143041384Y-101600000D01*
X161326981Y-105573981D02*
X163395962Y-103505000D01*
X130210000Y-89535000D02*
X130210000Y-92972767D01*
X170180000Y-103505000D02*
X170815000Y-102870000D01*
X155619000Y-101898000D02*
X159294981Y-105573981D01*
X159294981Y-105573981D02*
X161326981Y-105573981D01*
X143041384Y-101600000D02*
X150749000Y-101600000D01*
X150749000Y-101600000D02*
X151047000Y-101898000D01*
X130210000Y-92972767D02*
X131217233Y-93980000D01*
X163395962Y-103505000D02*
X170180000Y-103505000D01*
X151047000Y-101898000D02*
X155619000Y-101898000D01*
%TO.N,/A15*%
X165365000Y-86330000D02*
X166605000Y-85090000D01*
X163062515Y-107373981D02*
X158549397Y-107373981D01*
X166605000Y-85090000D02*
X170815000Y-85090000D01*
X163953248Y-106483248D02*
X163062515Y-107373981D01*
X170815000Y-85090000D02*
X166680000Y-85090000D01*
X165365000Y-88000000D02*
X165365000Y-86330000D01*
X158549397Y-107373981D02*
X156585416Y-105410000D01*
X164350961Y-89014039D02*
X165365000Y-88000000D01*
X162874999Y-89014039D02*
X164350961Y-89014039D01*
X156585416Y-105410000D02*
X147355000Y-105410000D01*
%TO.N,/A4*%
X159867484Y-97146000D02*
X152893416Y-97146000D01*
X160968939Y-103470000D02*
X161960000Y-103470000D01*
X163013503Y-102416497D02*
X165015001Y-102416497D01*
X159841258Y-102342319D02*
X160968939Y-103470000D01*
X148457416Y-92710000D02*
X147355000Y-92710000D01*
X161960000Y-103470000D02*
X163013503Y-102416497D01*
X152893416Y-97146000D02*
X148457416Y-92710000D01*
X160467000Y-96546484D02*
X159867484Y-97146000D01*
%TO.N,/A8*%
X163806019Y-107973981D02*
X158300869Y-107973981D01*
X170815000Y-107950000D02*
X163830000Y-107950000D01*
X163830000Y-107950000D02*
X163806019Y-107973981D01*
X157006888Y-106680000D02*
X143545000Y-106680000D01*
X134655000Y-97790000D02*
X132115000Y-97790000D01*
X158300869Y-107973981D02*
X157006888Y-106680000D01*
X143545000Y-106680000D02*
X134655000Y-97790000D01*
%TO.N,/A14*%
X129575000Y-86146472D02*
X128983000Y-86738472D01*
X126630000Y-88908000D02*
X125730000Y-89808000D01*
X148697000Y-83840000D02*
X142743883Y-83840000D01*
X162481496Y-89964039D02*
X161925000Y-89407543D01*
X170815000Y-87630000D02*
X166605000Y-87630000D01*
X125730000Y-89808000D02*
X125730000Y-91090000D01*
X130825000Y-81300000D02*
X129575000Y-82550000D01*
X166605000Y-87630000D02*
X164270961Y-89964039D01*
X128983000Y-86738472D02*
X128983000Y-88208000D01*
X129575000Y-82550000D02*
X129575000Y-86146472D01*
X164270961Y-89964039D02*
X162481496Y-89964039D01*
X140203883Y-81300000D02*
X130825000Y-81300000D01*
X128983000Y-88208000D02*
X128283000Y-88908000D01*
X125730000Y-91090000D02*
X126080000Y-91440000D01*
X128283000Y-93008000D02*
X128880000Y-93605000D01*
X150727000Y-81810000D02*
X148697000Y-83840000D01*
X161925000Y-86106000D02*
X157629000Y-81810000D01*
X142743883Y-83840000D02*
X140203883Y-81300000D01*
X157629000Y-81810000D02*
X150727000Y-81810000D01*
X128880000Y-93605000D02*
X128880000Y-99635000D01*
X128880000Y-99635000D02*
X132115000Y-102870000D01*
X128283000Y-88908000D02*
X126630000Y-88908000D01*
X161925000Y-89407543D02*
X161925000Y-86106000D01*
%TO.N,/~{CART}*%
X128625000Y-85090000D02*
X128975000Y-84740000D01*
X128975000Y-82116000D02*
X130465000Y-80626000D01*
X162878528Y-78210000D02*
X164043528Y-79375000D01*
X150007000Y-76220000D02*
X151997000Y-78210000D01*
X128975000Y-84740000D02*
X128975000Y-82116000D01*
X130465000Y-76952233D02*
X131197233Y-76220000D01*
X164043528Y-79375000D02*
X170180000Y-79375000D01*
X170180000Y-79375000D02*
X170815000Y-80010000D01*
X131197233Y-76220000D02*
X150007000Y-76220000D01*
X130465000Y-80626000D02*
X130465000Y-76952233D01*
X151997000Y-78210000D02*
X162878528Y-78210000D01*
%TO.N,/A11*%
X135290000Y-92710000D02*
X141620000Y-99040000D01*
X159245000Y-100698000D02*
X159945000Y-101398000D01*
X150469416Y-99040000D02*
X152127416Y-100698000D01*
X159945000Y-101398000D02*
X164413000Y-101398000D01*
X152127416Y-100698000D02*
X159245000Y-100698000D01*
X165481000Y-100330000D02*
X170815000Y-100330000D01*
X141620000Y-99040000D02*
X150469416Y-99040000D01*
X164413000Y-101398000D02*
X165481000Y-100330000D01*
X132115000Y-92710000D02*
X135290000Y-92710000D01*
%TO.N,/A0*%
X149171295Y-81210000D02*
X147831295Y-82550000D01*
X147831295Y-82550000D02*
X147355000Y-82550000D01*
X158461000Y-81210000D02*
X149171295Y-81210000D01*
X160909000Y-83658000D02*
X158461000Y-81210000D01*
%TO.N,/D1*%
X162630000Y-78810000D02*
X150793528Y-78810000D01*
X149453528Y-77470000D02*
X147355000Y-77470000D01*
X164465000Y-80645000D02*
X162630000Y-78810000D01*
X165014998Y-80645000D02*
X164465000Y-80645000D01*
X150793528Y-78810000D02*
X149453528Y-77470000D01*
%TO.N,/D3*%
X154752000Y-75885000D02*
X164465000Y-75885000D01*
X132115000Y-72390000D02*
X133365000Y-71140000D01*
X133365000Y-71140000D02*
X150007000Y-71140000D01*
X150007000Y-71140000D02*
X154752000Y-75885000D01*
%TO.N,/~{RD}*%
X135290000Y-90170000D02*
X141660000Y-96540000D01*
X165365000Y-97946472D02*
X165365000Y-96490000D01*
X132115000Y-90170000D02*
X135290000Y-90170000D01*
X164216472Y-99095000D02*
X165365000Y-97946472D01*
X152624472Y-99498000D02*
X160685446Y-99498000D01*
X161088446Y-99095000D02*
X164216472Y-99095000D01*
X166620976Y-95234024D02*
X170779085Y-95234024D01*
X165365000Y-96490000D02*
X166620976Y-95234024D01*
X141660000Y-96540000D02*
X149666472Y-96540000D01*
X149666472Y-96540000D02*
X152624472Y-99498000D01*
X160685446Y-99498000D02*
X161088446Y-99095000D01*
%TO.N,/A7*%
X159867000Y-104623981D02*
X159867000Y-103860000D01*
X157305000Y-101298000D02*
X151878888Y-101298000D01*
X162777248Y-108923981D02*
X164343267Y-110490000D01*
X151878888Y-101298000D02*
X150910888Y-100330000D01*
X164343267Y-110490000D02*
X170815000Y-110490000D01*
X150910888Y-100330000D02*
X147355000Y-100330000D01*
X159867000Y-103860000D02*
X157305000Y-101298000D01*
%TO.N,/D2*%
X163622056Y-78105000D02*
X163127056Y-77610000D01*
X164465000Y-78105000D02*
X163622056Y-78105000D01*
X152773764Y-77610000D02*
X150093764Y-74930000D01*
X150093764Y-74930000D02*
X147355000Y-74930000D01*
X163127056Y-77610000D02*
X152773764Y-77610000D01*
%TO.N,/D4*%
X133385000Y-73660000D02*
X150749000Y-73660000D01*
X165493503Y-77470000D02*
X170815000Y-77470000D01*
X132115000Y-74930000D02*
X133385000Y-73660000D01*
X164858503Y-76835000D02*
X165493503Y-77470000D01*
X153924000Y-76835000D02*
X164858503Y-76835000D01*
X150749000Y-73660000D02*
X153924000Y-76835000D01*
%TO.N,/A5*%
X152873000Y-98898000D02*
X160436918Y-98898000D01*
X149225000Y-95250000D02*
X152873000Y-98898000D01*
X160436918Y-98898000D02*
X161488434Y-97846484D01*
X161488434Y-97846484D02*
X164121484Y-97846484D01*
X147355000Y-95250000D02*
X149225000Y-95250000D01*
%TO.N,/D0*%
X164256426Y-86122791D02*
X165365000Y-85014217D01*
X165365000Y-84331497D02*
X161043503Y-80010000D01*
X164256426Y-86859932D02*
X164256426Y-86122791D01*
X161043503Y-80010000D02*
X147355000Y-80010000D01*
X165365000Y-85014217D02*
X165365000Y-84331497D01*
%TO.N,/D5*%
X161538528Y-79410000D02*
X150545000Y-79410000D01*
X170815000Y-82550000D02*
X166665000Y-82550000D01*
X166030000Y-81915000D02*
X164043528Y-81915000D01*
X150545000Y-79410000D02*
X149895000Y-78760000D01*
X133405000Y-78760000D02*
X132115000Y-77470000D01*
X149895000Y-78760000D02*
X133405000Y-78760000D01*
X164043528Y-81915000D02*
X161538528Y-79410000D01*
X166665000Y-82550000D02*
X166030000Y-81915000D01*
%TO.N,/A12*%
X163115001Y-100059484D02*
X163479485Y-99695000D01*
X164371498Y-104460001D02*
X163289489Y-104460001D01*
X161575509Y-106173981D02*
X159046453Y-106173981D01*
X159046453Y-106173981D02*
X155742472Y-102870000D01*
X163289489Y-104460001D02*
X161575509Y-106173981D01*
X155742472Y-102870000D02*
X147355000Y-102870000D01*
X164465000Y-99695000D02*
X166370000Y-97790000D01*
X166370000Y-97790000D02*
X170815000Y-97790000D01*
X163479485Y-99695000D02*
X164465000Y-99695000D01*
%TO.N,/A13*%
X129260000Y-91408000D02*
X129575000Y-91723000D01*
X148971000Y-88900000D02*
X149733000Y-89662000D01*
X163418097Y-94996484D02*
X165365000Y-93049581D01*
X130175000Y-86395000D02*
X130175000Y-84358616D01*
X141136384Y-88900000D02*
X148971000Y-88900000D01*
X130693616Y-83840000D02*
X136076384Y-83840000D01*
X165365000Y-91410000D02*
X166605000Y-90170000D01*
X136076384Y-83840000D02*
X141136384Y-88900000D01*
X130175000Y-84358616D02*
X130693616Y-83840000D01*
X166605000Y-90170000D02*
X170815000Y-90170000D01*
X152440956Y-94996484D02*
X163418097Y-94996484D01*
X129583000Y-88464944D02*
X129583000Y-86987000D01*
X129575000Y-97790000D02*
X132115000Y-100330000D01*
X149733000Y-92288528D02*
X152440956Y-94996484D01*
X165365000Y-93049581D02*
X165365000Y-91410000D01*
X129575000Y-91723000D02*
X129575000Y-97790000D01*
X127284748Y-89909748D02*
X128138196Y-89909748D01*
X149733000Y-89662000D02*
X149733000Y-92288528D01*
X128138196Y-89909748D02*
X129583000Y-88464944D01*
X129583000Y-86987000D02*
X130175000Y-86395000D01*
%TO.N,/A3*%
X149005000Y-92409056D02*
X149005000Y-91820000D01*
X163023481Y-95596484D02*
X152192428Y-95596484D01*
X149005000Y-91820000D02*
X147355000Y-90170000D01*
X163373482Y-95946485D02*
X163023481Y-95596484D01*
X152192428Y-95596484D02*
X149005000Y-92409056D01*
%TO.N,/A2*%
X163614287Y-93456791D02*
X162687000Y-93456791D01*
X157861000Y-83058000D02*
X152527000Y-83058000D01*
X161325000Y-92094791D02*
X161325000Y-86522000D01*
X162687000Y-93456791D02*
X161325000Y-92094791D01*
X152527000Y-83058000D02*
X147955000Y-87630000D01*
X161325000Y-86522000D02*
X157861000Y-83058000D01*
X147955000Y-87630000D02*
X147355000Y-87630000D01*
%TO.N,/A6*%
X150067944Y-97790000D02*
X147355000Y-97790000D01*
X152375944Y-100098000D02*
X150067944Y-97790000D01*
X160467000Y-100448000D02*
X160117000Y-100098000D01*
X160117000Y-100098000D02*
X152375944Y-100098000D01*
%TO.N,/A9*%
X156143944Y-104120000D02*
X158797925Y-106773981D01*
X134655000Y-95250000D02*
X143525000Y-104120000D01*
X132115000Y-95250000D02*
X134655000Y-95250000D01*
X158797925Y-106773981D02*
X162319012Y-106773981D01*
X162319012Y-106773981D02*
X163682993Y-105410000D01*
X163682993Y-105410000D02*
X170815000Y-105410000D01*
X143525000Y-104120000D02*
X156143944Y-104120000D01*
%TD*%
%TA.AperFunction,Conductor*%
%TO.N,+5V*%
G36*
X156753119Y-107350185D02*
G01*
X156773761Y-107366819D01*
X157886193Y-108479252D01*
X157886200Y-108479258D01*
X157992740Y-108550445D01*
X157992739Y-108550445D01*
X158027413Y-108564807D01*
X158111125Y-108599482D01*
X158111129Y-108599482D01*
X158111130Y-108599483D01*
X158236797Y-108624481D01*
X158236800Y-108624481D01*
X161664592Y-108624481D01*
X161731631Y-108644166D01*
X161777386Y-108696970D01*
X161787995Y-108760635D01*
X161771907Y-108923981D01*
X161791223Y-109120110D01*
X161848436Y-109308714D01*
X161941334Y-109482513D01*
X161941338Y-109482520D01*
X162066364Y-109634864D01*
X162218708Y-109759890D01*
X162218715Y-109759894D01*
X162392514Y-109852792D01*
X162392517Y-109852792D01*
X162392521Y-109852795D01*
X162581116Y-109910005D01*
X162777248Y-109929322D01*
X162777248Y-109929321D01*
X162777249Y-109929322D01*
X162777251Y-109929322D01*
X162788763Y-109928187D01*
X162796617Y-109927414D01*
X162865263Y-109940430D01*
X162896456Y-109963135D01*
X163928591Y-110995271D01*
X163928594Y-110995274D01*
X163928597Y-110995276D01*
X163990008Y-111036309D01*
X164035140Y-111066465D01*
X164153523Y-111115501D01*
X164153527Y-111115501D01*
X164153528Y-111115502D01*
X164279195Y-111140500D01*
X164976000Y-111140500D01*
X165043039Y-111160185D01*
X165088794Y-111212989D01*
X165100000Y-111264500D01*
X165100000Y-114183500D01*
X165080315Y-114250539D01*
X165027511Y-114296294D01*
X164976000Y-114307500D01*
X121147500Y-114307500D01*
X121080461Y-114287815D01*
X121034706Y-114235011D01*
X121023500Y-114183500D01*
X121023500Y-107928422D01*
X121043185Y-107861383D01*
X121095989Y-107815628D01*
X121165147Y-107805684D01*
X121228703Y-107834709D01*
X121250808Y-107861484D01*
X121251295Y-107861144D01*
X121389894Y-108059082D01*
X121556917Y-108226105D01*
X121750421Y-108361600D01*
X121964507Y-108461429D01*
X121964516Y-108461433D01*
X122178000Y-108518634D01*
X122178000Y-107621012D01*
X122235007Y-107653925D01*
X122362174Y-107688000D01*
X122493826Y-107688000D01*
X122620993Y-107653925D01*
X122678000Y-107621012D01*
X122678000Y-108518633D01*
X122891483Y-108461433D01*
X122891492Y-108461429D01*
X123105578Y-108361600D01*
X123299082Y-108226105D01*
X123466105Y-108059082D01*
X123596119Y-107873405D01*
X123650696Y-107829781D01*
X123720195Y-107822588D01*
X123782549Y-107854110D01*
X123799269Y-107873405D01*
X123929505Y-108059401D01*
X124096599Y-108226495D01*
X124193384Y-108294265D01*
X124290165Y-108362032D01*
X124290167Y-108362033D01*
X124290170Y-108362035D01*
X124504337Y-108461903D01*
X124732592Y-108523063D01*
X124920918Y-108539539D01*
X124967999Y-108543659D01*
X124968000Y-108543659D01*
X124968001Y-108543659D01*
X124986939Y-108542001D01*
X125203408Y-108523063D01*
X125272043Y-108504672D01*
X125341893Y-108506333D01*
X125391819Y-108536765D01*
X126580325Y-109725272D01*
X126580326Y-109725273D01*
X126580329Y-109725275D01*
X126580331Y-109725277D01*
X126686873Y-109796465D01*
X126805256Y-109845501D01*
X126805260Y-109845501D01*
X126805261Y-109845502D01*
X126930928Y-109870500D01*
X126930931Y-109870500D01*
X127459556Y-109870500D01*
X127526595Y-109890185D01*
X127572350Y-109942989D01*
X127583084Y-110005307D01*
X127579526Y-110045974D01*
X128258553Y-110725000D01*
X128252339Y-110725000D01*
X128150606Y-110752259D01*
X128059394Y-110804920D01*
X127984920Y-110879394D01*
X127932259Y-110970606D01*
X127905000Y-111072339D01*
X127905000Y-111078552D01*
X127225974Y-110399526D01*
X127225973Y-110399526D01*
X127174868Y-110472512D01*
X127174867Y-110472514D01*
X127167656Y-110487979D01*
X127121482Y-110540417D01*
X127054288Y-110559567D01*
X126987407Y-110539350D01*
X126942893Y-110487976D01*
X126935568Y-110472266D01*
X126805047Y-110285861D01*
X126805045Y-110285858D01*
X126644141Y-110124954D01*
X126457734Y-109994432D01*
X126457732Y-109994431D01*
X126251497Y-109898261D01*
X126251488Y-109898258D01*
X126031697Y-109839366D01*
X126031693Y-109839365D01*
X126031692Y-109839365D01*
X126031691Y-109839364D01*
X126031686Y-109839364D01*
X125805002Y-109819532D01*
X125804998Y-109819532D01*
X125578313Y-109839364D01*
X125578302Y-109839366D01*
X125358511Y-109898258D01*
X125358502Y-109898261D01*
X125152267Y-109994431D01*
X125152265Y-109994432D01*
X124965858Y-110124954D01*
X124804954Y-110285858D01*
X124674432Y-110472265D01*
X124674431Y-110472267D01*
X124578261Y-110678502D01*
X124578258Y-110678511D01*
X124519366Y-110898302D01*
X124519364Y-110898313D01*
X124499532Y-111124998D01*
X124499532Y-111125001D01*
X124519364Y-111351686D01*
X124519366Y-111351697D01*
X124578258Y-111571488D01*
X124578261Y-111571497D01*
X124674431Y-111777732D01*
X124674432Y-111777734D01*
X124804954Y-111964141D01*
X124965858Y-112125045D01*
X124965861Y-112125047D01*
X125152266Y-112255568D01*
X125358504Y-112351739D01*
X125578308Y-112410635D01*
X125740230Y-112424801D01*
X125804998Y-112430468D01*
X125805000Y-112430468D01*
X125805002Y-112430468D01*
X125861673Y-112425509D01*
X126031692Y-112410635D01*
X126251496Y-112351739D01*
X126457734Y-112255568D01*
X126644139Y-112125047D01*
X126805047Y-111964139D01*
X126935568Y-111777734D01*
X126942893Y-111762024D01*
X126989064Y-111709586D01*
X127056257Y-111690433D01*
X127123138Y-111710648D01*
X127167657Y-111762024D01*
X127174864Y-111777480D01*
X127225974Y-111850472D01*
X127905000Y-111171446D01*
X127905000Y-111177661D01*
X127932259Y-111279394D01*
X127984920Y-111370606D01*
X128059394Y-111445080D01*
X128150606Y-111497741D01*
X128252339Y-111525000D01*
X128258553Y-111525000D01*
X127579526Y-112204025D01*
X127652513Y-112255132D01*
X127652521Y-112255136D01*
X127858668Y-112351264D01*
X127858682Y-112351269D01*
X128078389Y-112410139D01*
X128078400Y-112410141D01*
X128304998Y-112429966D01*
X128305002Y-112429966D01*
X128531599Y-112410141D01*
X128531610Y-112410139D01*
X128751317Y-112351269D01*
X128751331Y-112351264D01*
X128957478Y-112255136D01*
X129030471Y-112204024D01*
X128351447Y-111525000D01*
X128357661Y-111525000D01*
X128459394Y-111497741D01*
X128550606Y-111445080D01*
X128625080Y-111370606D01*
X128677741Y-111279394D01*
X128705000Y-111177661D01*
X128705000Y-111171447D01*
X129384024Y-111850471D01*
X129435136Y-111777478D01*
X129531264Y-111571331D01*
X129531269Y-111571317D01*
X129590139Y-111351610D01*
X129590141Y-111351599D01*
X129609966Y-111125002D01*
X129609966Y-111124997D01*
X129590141Y-110898400D01*
X129590139Y-110898389D01*
X129531269Y-110678682D01*
X129531264Y-110678668D01*
X129435136Y-110472521D01*
X129435132Y-110472513D01*
X129384025Y-110399526D01*
X128705000Y-111078551D01*
X128705000Y-111072339D01*
X128677741Y-110970606D01*
X128625080Y-110879394D01*
X128550606Y-110804920D01*
X128459394Y-110752259D01*
X128357661Y-110725000D01*
X128351445Y-110725000D01*
X129030472Y-110045974D01*
X129026915Y-110005307D01*
X129040682Y-109936807D01*
X129089297Y-109886624D01*
X129150443Y-109870500D01*
X130378716Y-109870500D01*
X130445755Y-109890185D01*
X130491510Y-109942989D01*
X130501454Y-110012147D01*
X130496647Y-110032818D01*
X130447009Y-110185586D01*
X130438391Y-110240000D01*
X131799314Y-110240000D01*
X131794920Y-110244394D01*
X131742259Y-110335606D01*
X131715000Y-110437339D01*
X131715000Y-110542661D01*
X131742259Y-110644394D01*
X131794920Y-110735606D01*
X131799314Y-110740000D01*
X130438391Y-110740000D01*
X130447009Y-110794413D01*
X130510244Y-110989029D01*
X130603140Y-111171349D01*
X130723417Y-111336894D01*
X130723417Y-111336895D01*
X130868104Y-111481582D01*
X131033650Y-111601859D01*
X131215968Y-111694755D01*
X131410582Y-111757990D01*
X131612683Y-111790000D01*
X131865000Y-111790000D01*
X131865000Y-110805686D01*
X131869394Y-110810080D01*
X131960606Y-110862741D01*
X132062339Y-110890000D01*
X132167661Y-110890000D01*
X132269394Y-110862741D01*
X132360606Y-110810080D01*
X132365000Y-110805686D01*
X132365000Y-111790000D01*
X132617317Y-111790000D01*
X132819417Y-111757990D01*
X133014031Y-111694755D01*
X133196349Y-111601859D01*
X133361894Y-111481582D01*
X133361895Y-111481582D01*
X133506582Y-111336895D01*
X133506582Y-111336894D01*
X133626859Y-111171349D01*
X133719755Y-110989029D01*
X133782990Y-110794413D01*
X133791609Y-110740000D01*
X132430686Y-110740000D01*
X132435080Y-110735606D01*
X132487741Y-110644394D01*
X132515000Y-110542661D01*
X132515000Y-110437339D01*
X132487741Y-110335606D01*
X132435080Y-110244394D01*
X132430686Y-110240000D01*
X133791609Y-110240000D01*
X133782990Y-110185586D01*
X133733353Y-110032818D01*
X133731358Y-109962977D01*
X133767438Y-109903144D01*
X133830139Y-109872316D01*
X133851284Y-109870500D01*
X145530500Y-109870500D01*
X145597539Y-109890185D01*
X145643294Y-109942989D01*
X145654500Y-109994500D01*
X145654500Y-111337870D01*
X145654501Y-111337876D01*
X145660908Y-111397483D01*
X145711202Y-111532328D01*
X145711206Y-111532335D01*
X145797452Y-111647544D01*
X145797455Y-111647547D01*
X145912664Y-111733793D01*
X145912671Y-111733797D01*
X146047517Y-111784091D01*
X146047516Y-111784091D01*
X146054444Y-111784835D01*
X146107127Y-111790500D01*
X148602872Y-111790499D01*
X148662483Y-111784091D01*
X148797331Y-111733796D01*
X148912546Y-111647546D01*
X148998796Y-111532331D01*
X149049091Y-111397483D01*
X149055500Y-111337873D01*
X149055499Y-109642128D01*
X149049091Y-109582517D01*
X148998796Y-109447669D01*
X148998795Y-109447668D01*
X148998793Y-109447664D01*
X148912547Y-109332455D01*
X148912544Y-109332452D01*
X148797335Y-109246206D01*
X148797328Y-109246202D01*
X148662482Y-109195908D01*
X148662483Y-109195908D01*
X148625560Y-109191939D01*
X148561009Y-109165201D01*
X148521160Y-109107809D01*
X148518667Y-109037984D01*
X148554319Y-108977895D01*
X148565930Y-108968331D01*
X148602219Y-108941966D01*
X148746966Y-108797219D01*
X148746968Y-108797215D01*
X148746971Y-108797213D01*
X148799799Y-108724500D01*
X148867287Y-108631610D01*
X148960220Y-108449219D01*
X149023477Y-108254534D01*
X149055500Y-108052352D01*
X149055500Y-107847648D01*
X149023477Y-107645466D01*
X149023476Y-107645462D01*
X149023476Y-107645461D01*
X148973879Y-107492818D01*
X148971884Y-107422977D01*
X149007964Y-107363144D01*
X149070665Y-107332316D01*
X149091810Y-107330500D01*
X156686080Y-107330500D01*
X156753119Y-107350185D01*
G37*
%TD.AperFunction*%
%TA.AperFunction,Conductor*%
G36*
X122678000Y-106754988D02*
G01*
X122620993Y-106722075D01*
X122493826Y-106688000D01*
X122362174Y-106688000D01*
X122235007Y-106722075D01*
X122178000Y-106754988D01*
X122178000Y-105081012D01*
X122235007Y-105113925D01*
X122362174Y-105148000D01*
X122493826Y-105148000D01*
X122620993Y-105113925D01*
X122678000Y-105081012D01*
X122678000Y-106754988D01*
G37*
%TD.AperFunction*%
%TA.AperFunction,Conductor*%
G36*
X122678000Y-104214988D02*
G01*
X122620993Y-104182075D01*
X122493826Y-104148000D01*
X122362174Y-104148000D01*
X122235007Y-104182075D01*
X122178000Y-104214988D01*
X122178000Y-102541012D01*
X122235007Y-102573925D01*
X122362174Y-102608000D01*
X122493826Y-102608000D01*
X122620993Y-102573925D01*
X122678000Y-102541012D01*
X122678000Y-104214988D01*
G37*
%TD.AperFunction*%
%TA.AperFunction,Conductor*%
G36*
X155383363Y-69608185D02*
G01*
X155404005Y-69624819D01*
X159238500Y-73459314D01*
X159331686Y-73552500D01*
X159445814Y-73618392D01*
X159573108Y-73652500D01*
X159573110Y-73652500D01*
X164976000Y-73652500D01*
X165043039Y-73672185D01*
X165088794Y-73724989D01*
X165100000Y-73776500D01*
X165100000Y-74883077D01*
X165080315Y-74950116D01*
X165027511Y-74995871D01*
X164958353Y-75005815D01*
X164917548Y-74992436D01*
X164849731Y-74956188D01*
X164849730Y-74956187D01*
X164849727Y-74956186D01*
X164661132Y-74898976D01*
X164661129Y-74898975D01*
X164465000Y-74879659D01*
X164268870Y-74898975D01*
X164080266Y-74956188D01*
X163906467Y-75049086D01*
X163906460Y-75049090D01*
X163754117Y-75174116D01*
X163741768Y-75189164D01*
X163684022Y-75228499D01*
X163645914Y-75234500D01*
X155072808Y-75234500D01*
X155005769Y-75214815D01*
X154985127Y-75198181D01*
X150421674Y-70634727D01*
X150421673Y-70634726D01*
X150421669Y-70634723D01*
X150315127Y-70563535D01*
X150196744Y-70514499D01*
X150196738Y-70514497D01*
X150071071Y-70489500D01*
X150071069Y-70489500D01*
X133300931Y-70489500D01*
X133300929Y-70489500D01*
X133175261Y-70514497D01*
X133175255Y-70514499D01*
X133056874Y-70563534D01*
X132950326Y-70634726D01*
X132950325Y-70634727D01*
X132531873Y-71053181D01*
X132470550Y-71086666D01*
X132444192Y-71089500D01*
X131612648Y-71089500D01*
X131588329Y-71093351D01*
X131410465Y-71121522D01*
X131215776Y-71184781D01*
X131033386Y-71277715D01*
X130867786Y-71398028D01*
X130723028Y-71542786D01*
X130602715Y-71708386D01*
X130509781Y-71890776D01*
X130446522Y-72085465D01*
X130414500Y-72287648D01*
X130414500Y-72492351D01*
X130446522Y-72694534D01*
X130509781Y-72889223D01*
X130534131Y-72937011D01*
X130599227Y-73064769D01*
X130602715Y-73071613D01*
X130723028Y-73237213D01*
X130867786Y-73381971D01*
X130974242Y-73459314D01*
X131033390Y-73502287D01*
X131124840Y-73548883D01*
X131126080Y-73549515D01*
X131176876Y-73597490D01*
X131193671Y-73665311D01*
X131171134Y-73731446D01*
X131126080Y-73770485D01*
X131033386Y-73817715D01*
X130867786Y-73938028D01*
X130723028Y-74082786D01*
X130602715Y-74248386D01*
X130509781Y-74430776D01*
X130446522Y-74625465D01*
X130416720Y-74813633D01*
X130414500Y-74827648D01*
X130414500Y-75032352D01*
X130417151Y-75049090D01*
X130446522Y-75234534D01*
X130509781Y-75429223D01*
X130602712Y-75611608D01*
X130602713Y-75611610D01*
X130659536Y-75689822D01*
X130683015Y-75755629D01*
X130667189Y-75823682D01*
X130646898Y-75850387D01*
X129959725Y-76537561D01*
X129959719Y-76537569D01*
X129915261Y-76604105D01*
X129915262Y-76604106D01*
X129888534Y-76644107D01*
X129839499Y-76762488D01*
X129839497Y-76762494D01*
X129814500Y-76888161D01*
X129814500Y-80305191D01*
X129794815Y-80372230D01*
X129778181Y-80392872D01*
X128469727Y-81701325D01*
X128469724Y-81701328D01*
X128412838Y-81786466D01*
X128398535Y-81807872D01*
X128349181Y-81927022D01*
X128322301Y-81967250D01*
X127908000Y-82381551D01*
X127908000Y-82375339D01*
X127880741Y-82273606D01*
X127828080Y-82182394D01*
X127753606Y-82107920D01*
X127662394Y-82055259D01*
X127560661Y-82028000D01*
X127554446Y-82028000D01*
X128233472Y-81348974D01*
X128160478Y-81297863D01*
X127954331Y-81201735D01*
X127954317Y-81201730D01*
X127734610Y-81142860D01*
X127734599Y-81142858D01*
X127508002Y-81123034D01*
X127507998Y-81123034D01*
X127281400Y-81142858D01*
X127281389Y-81142860D01*
X127061682Y-81201730D01*
X127061673Y-81201734D01*
X126855517Y-81297866D01*
X126728624Y-81386718D01*
X126662417Y-81409045D01*
X126594650Y-81392035D01*
X126546837Y-81341087D01*
X126533500Y-81285143D01*
X126533500Y-80553807D01*
X126553185Y-80486768D01*
X126569815Y-80466130D01*
X127121062Y-79914882D01*
X127182383Y-79881399D01*
X127240834Y-79882790D01*
X127281308Y-79893635D01*
X127443230Y-79907801D01*
X127507998Y-79913468D01*
X127508000Y-79913468D01*
X127508002Y-79913468D01*
X127564673Y-79908509D01*
X127734692Y-79893635D01*
X127954496Y-79834739D01*
X128160734Y-79738568D01*
X128347139Y-79608047D01*
X128508047Y-79447139D01*
X128638568Y-79260734D01*
X128734739Y-79054496D01*
X128793635Y-78834692D01*
X128813468Y-78608000D01*
X128793635Y-78381308D01*
X128734739Y-78161504D01*
X128638568Y-77955266D01*
X128508047Y-77768861D01*
X128508045Y-77768858D01*
X128347141Y-77607954D01*
X128160734Y-77477432D01*
X128160732Y-77477431D01*
X127954497Y-77381261D01*
X127954488Y-77381258D01*
X127734697Y-77322366D01*
X127734693Y-77322365D01*
X127734692Y-77322365D01*
X127734691Y-77322364D01*
X127734686Y-77322364D01*
X127508002Y-77302532D01*
X127507998Y-77302532D01*
X127281313Y-77322364D01*
X127281302Y-77322366D01*
X127061511Y-77381258D01*
X127061502Y-77381261D01*
X126855267Y-77477431D01*
X126855265Y-77477432D01*
X126668858Y-77607954D01*
X126507954Y-77768858D01*
X126377432Y-77955265D01*
X126377431Y-77955267D01*
X126281261Y-78161502D01*
X126281258Y-78161511D01*
X126222366Y-78381302D01*
X126222364Y-78381313D01*
X126202532Y-78607998D01*
X126202532Y-78608001D01*
X126222364Y-78834686D01*
X126222366Y-78834697D01*
X126233209Y-78875163D01*
X126231546Y-78945013D01*
X126201115Y-78994937D01*
X125377727Y-79818325D01*
X125377721Y-79818332D01*
X125312946Y-79915277D01*
X125312946Y-79915279D01*
X125306533Y-79924875D01*
X125257499Y-80043255D01*
X125257497Y-80043261D01*
X125232500Y-80168928D01*
X125232500Y-81222017D01*
X125212815Y-81289056D01*
X125160011Y-81334811D01*
X125090853Y-81344755D01*
X125037378Y-81323593D01*
X124999140Y-81296819D01*
X124985734Y-81287432D01*
X124970193Y-81280185D01*
X124779497Y-81191261D01*
X124779488Y-81191258D01*
X124559697Y-81132366D01*
X124559693Y-81132365D01*
X124559692Y-81132365D01*
X124559691Y-81132364D01*
X124559686Y-81132364D01*
X124333002Y-81112532D01*
X124332998Y-81112532D01*
X124106313Y-81132364D01*
X124106302Y-81132366D01*
X123886511Y-81191258D01*
X123886502Y-81191262D01*
X123854905Y-81205996D01*
X123785827Y-81216488D01*
X123722043Y-81187968D01*
X123683804Y-81129492D01*
X123678500Y-81093614D01*
X123678500Y-80233807D01*
X123698185Y-80166768D01*
X123714815Y-80146130D01*
X123946062Y-79914882D01*
X124007383Y-79881399D01*
X124065834Y-79882790D01*
X124106308Y-79893635D01*
X124268230Y-79907801D01*
X124332998Y-79913468D01*
X124333000Y-79913468D01*
X124333002Y-79913468D01*
X124389673Y-79908509D01*
X124559692Y-79893635D01*
X124779496Y-79834739D01*
X124985734Y-79738568D01*
X125172139Y-79608047D01*
X125333047Y-79447139D01*
X125463568Y-79260734D01*
X125559739Y-79054496D01*
X125618635Y-78834692D01*
X125638468Y-78608000D01*
X125618635Y-78381308D01*
X125559739Y-78161504D01*
X125463568Y-77955266D01*
X125333047Y-77768861D01*
X125333045Y-77768858D01*
X125172141Y-77607954D01*
X124985734Y-77477432D01*
X124985732Y-77477431D01*
X124779497Y-77381261D01*
X124779488Y-77381258D01*
X124559697Y-77322366D01*
X124559693Y-77322365D01*
X124559692Y-77322365D01*
X124559691Y-77322364D01*
X124559686Y-77322364D01*
X124333002Y-77302532D01*
X124332998Y-77302532D01*
X124106313Y-77322364D01*
X124106302Y-77322366D01*
X123886511Y-77381258D01*
X123886502Y-77381261D01*
X123680267Y-77477431D01*
X123680265Y-77477432D01*
X123493858Y-77607954D01*
X123332954Y-77768858D01*
X123202432Y-77955265D01*
X123202431Y-77955267D01*
X123106261Y-78161502D01*
X123106258Y-78161511D01*
X123047366Y-78381302D01*
X123047364Y-78381313D01*
X123027532Y-78607998D01*
X123027532Y-78608001D01*
X123047364Y-78834686D01*
X123047366Y-78834697D01*
X123058209Y-78875163D01*
X123056546Y-78945013D01*
X123026115Y-78994937D01*
X122817315Y-79203737D01*
X122780186Y-79228548D01*
X122780247Y-79228662D01*
X122779090Y-79229280D01*
X122777096Y-79230613D01*
X122774878Y-79231531D01*
X122668328Y-79302725D01*
X122522721Y-79448333D01*
X122522719Y-79448336D01*
X122485043Y-79504722D01*
X122485044Y-79504723D01*
X122451534Y-79554874D01*
X122402499Y-79673255D01*
X122402497Y-79673261D01*
X122377500Y-79798928D01*
X122377500Y-79798931D01*
X122377500Y-100232069D01*
X122377500Y-100232071D01*
X122377499Y-100232071D01*
X122402497Y-100357738D01*
X122402499Y-100357744D01*
X122451535Y-100476127D01*
X122522723Y-100582669D01*
X122641682Y-100701628D01*
X122675166Y-100762949D01*
X122678000Y-100789308D01*
X122678000Y-101674988D01*
X122620993Y-101642075D01*
X122493826Y-101608000D01*
X122362174Y-101608000D01*
X122235007Y-101642075D01*
X122178000Y-101674988D01*
X122178000Y-100758000D01*
X121530155Y-100758000D01*
X121470627Y-100764401D01*
X121470620Y-100764403D01*
X121335913Y-100814645D01*
X121335906Y-100814649D01*
X121221811Y-100900062D01*
X121156347Y-100924480D01*
X121088074Y-100909629D01*
X121038668Y-100860224D01*
X121023500Y-100800796D01*
X121023500Y-73527998D01*
X123027532Y-73527998D01*
X123027532Y-73528001D01*
X123047364Y-73754686D01*
X123047366Y-73754697D01*
X123106258Y-73974488D01*
X123106261Y-73974497D01*
X123202431Y-74180732D01*
X123202432Y-74180734D01*
X123332954Y-74367141D01*
X123493858Y-74528045D01*
X123493861Y-74528047D01*
X123680266Y-74658568D01*
X123886504Y-74754739D01*
X124106308Y-74813635D01*
X124266477Y-74827648D01*
X124332998Y-74833468D01*
X124333000Y-74833468D01*
X124333002Y-74833468D01*
X124389673Y-74828509D01*
X124559692Y-74813635D01*
X124779496Y-74754739D01*
X124985734Y-74658568D01*
X125172139Y-74528047D01*
X125333047Y-74367139D01*
X125463568Y-74180734D01*
X125559739Y-73974496D01*
X125618635Y-73754692D01*
X125638468Y-73528000D01*
X125638468Y-73527998D01*
X126202532Y-73527998D01*
X126202532Y-73528001D01*
X126222364Y-73754686D01*
X126222366Y-73754697D01*
X126281258Y-73974488D01*
X126281261Y-73974497D01*
X126377431Y-74180732D01*
X126377432Y-74180734D01*
X126507954Y-74367141D01*
X126668858Y-74528045D01*
X126668861Y-74528047D01*
X126855266Y-74658568D01*
X127061504Y-74754739D01*
X127281308Y-74813635D01*
X127441477Y-74827648D01*
X127507998Y-74833468D01*
X127508000Y-74833468D01*
X127508002Y-74833468D01*
X127564673Y-74828509D01*
X127734692Y-74813635D01*
X127954496Y-74754739D01*
X128160734Y-74658568D01*
X128347139Y-74528047D01*
X128508047Y-74367139D01*
X128638568Y-74180734D01*
X128734739Y-73974496D01*
X128793635Y-73754692D01*
X128813468Y-73528000D01*
X128811218Y-73502287D01*
X128800692Y-73381971D01*
X128793635Y-73301308D01*
X128734739Y-73081504D01*
X128638568Y-72875266D01*
X128508047Y-72688861D01*
X128508045Y-72688858D01*
X128347141Y-72527954D01*
X128160734Y-72397432D01*
X128160732Y-72397431D01*
X127954497Y-72301261D01*
X127954488Y-72301258D01*
X127734697Y-72242366D01*
X127734693Y-72242365D01*
X127734692Y-72242365D01*
X127734691Y-72242364D01*
X127734686Y-72242364D01*
X127508002Y-72222532D01*
X127507998Y-72222532D01*
X127281313Y-72242364D01*
X127281302Y-72242366D01*
X127061511Y-72301258D01*
X127061502Y-72301261D01*
X126855267Y-72397431D01*
X126855265Y-72397432D01*
X126668858Y-72527954D01*
X126507954Y-72688858D01*
X126377432Y-72875265D01*
X126377431Y-72875267D01*
X126281261Y-73081502D01*
X126281258Y-73081511D01*
X126222366Y-73301302D01*
X126222364Y-73301313D01*
X126202532Y-73527998D01*
X125638468Y-73527998D01*
X125636218Y-73502287D01*
X125625692Y-73381971D01*
X125618635Y-73301308D01*
X125559739Y-73081504D01*
X125463568Y-72875266D01*
X125333047Y-72688861D01*
X125333045Y-72688858D01*
X125172141Y-72527954D01*
X124985734Y-72397432D01*
X124985732Y-72397431D01*
X124779497Y-72301261D01*
X124779488Y-72301258D01*
X124559697Y-72242366D01*
X124559693Y-72242365D01*
X124559692Y-72242365D01*
X124559691Y-72242364D01*
X124559686Y-72242364D01*
X124333002Y-72222532D01*
X124332998Y-72222532D01*
X124106313Y-72242364D01*
X124106302Y-72242366D01*
X123886511Y-72301258D01*
X123886502Y-72301261D01*
X123680267Y-72397431D01*
X123680265Y-72397432D01*
X123493858Y-72527954D01*
X123332954Y-72688858D01*
X123202432Y-72875265D01*
X123202431Y-72875267D01*
X123106261Y-73081502D01*
X123106258Y-73081511D01*
X123047366Y-73301302D01*
X123047364Y-73301313D01*
X123027532Y-73527998D01*
X121023500Y-73527998D01*
X121023500Y-69712500D01*
X121043185Y-69645461D01*
X121095989Y-69599706D01*
X121147500Y-69588500D01*
X155316324Y-69588500D01*
X155383363Y-69608185D01*
G37*
%TD.AperFunction*%
%TD*%
M02*
