M48
; DRILL file {KiCad 8.0.8-8.0.8-0~ubuntu24.04.1} date 2025-02-06T11:49:31-0800
; FORMAT={-:-/ absolute / inch / decimal}
; #@! TF.CreationDate,2025-02-06T11:49:31-08:00
; #@! TF.GenerationSoftware,Kicad,Pcbnew,8.0.8-8.0.8-0~ubuntu24.04.1
; #@! TF.FileFunction,Plated,1,2,PTH
FMAT,2
INCH
; #@! TA.AperFunction,Plated,PTH,ViaDrill
T1C0.0197
; #@! TA.AperFunction,Plated,PTH,ComponentDrill
T2C0.0315
; #@! TA.AperFunction,Plated,PTH,ComponentDrill
T3C0.0394
%
G90
G05
T1
X4.9638Y-3.6
X4.9757Y-4.0712
X5.0112Y-3.5398
X5.0224Y-4.1303
X5.0505Y-3.6617
X5.064Y-3.35
X5.089Y-3.5987
X5.9Y-3.315
X6.293Y-4.0292
X6.294Y-4.1191
X6.3176Y-3.801
X6.3176Y-3.9546
X6.335Y-3.2936
X6.4086Y-4.2883
X6.4124Y-3.5045
X6.4219Y-3.9393
X6.432Y-3.7774
X6.4415Y-3.6794
X6.4549Y-4.1923
X6.4615Y-3.8522
X6.4668Y-3.4197
X6.4686Y-3.333
X6.4713Y-4.1126
X6.475Y-2.9876
X6.475Y-3.075
X6.4967Y-3.175
X6.4967Y-4.0321
T2
X4.895Y-2.8948
X4.895Y-3.0948
X4.895Y-3.2448
X4.895Y-3.4448
X4.953Y-4.375
X5.02Y-2.8948
X5.02Y-3.0948
X5.02Y-3.2452
X5.02Y-3.4452
X5.0514Y-4.375
X5.2014Y-2.85
X5.2014Y-2.95
X5.2014Y-3.05
X5.2014Y-3.15
X5.2014Y-3.25
X5.2014Y-3.35
X5.2014Y-3.45
X5.2014Y-3.55
X5.2014Y-3.65
X5.2014Y-3.75
X5.2014Y-3.85
X5.2014Y-3.95
X5.2014Y-4.05
X5.2014Y-4.15
X5.2014Y-4.25
X5.2014Y-4.35
X5.8014Y-2.85
X5.8014Y-2.95
X5.8014Y-3.05
X5.8014Y-3.15
X5.8014Y-3.25
X5.8014Y-3.35
X5.8014Y-3.45
X5.8014Y-3.55
X5.8014Y-3.65
X5.8014Y-3.75
X5.8014Y-3.85
X5.8014Y-3.95
X5.8014Y-4.05
X5.8014Y-4.15
X5.8014Y-4.25
X5.8014Y-4.35
T3
X4.82Y-4.02
X4.82Y-4.12
X4.82Y-4.22
X4.92Y-4.02
X4.92Y-4.12
X4.92Y-4.22
X5.0012Y-3.7248
X5.0012Y-3.8248
M30
